<?xml version="1.0" encoding="utf-8"?>
<!-- Generator: Adobe Illustrator 13.0.2, SVG Export Plug-In . SVG Version: 6.00 Build 14948)  -->
<!DOCTYPE svg PUBLIC "-//W3C//DTD SVG 1.1//EN" "http://www.w3.org/Graphics/SVG/1.1/DTD/svg11.dtd">
<svg version="1.1" id="Ebene_1" xmlns="http://www.w3.org/2000/svg" xmlns:xlink="http://www.w3.org/1999/xlink" x="0px" y="0px"
	 width="150.044px" height="150px" viewBox="0 0 150.044 150" enable-background="new 0 0 150.044 150" xml:space="preserve">
<g>
	<path fill-rule="evenodd" clip-rule="evenodd" d="M59.044,23c-2.681,0.741-8.928-1.35-10,1c-0.81-0.19-0.997-1.003-2-1
		c0-0.667,0-1.333,0-2C51.8,22.197,55.646,19.518,59.044,23z"/>
	<path fill-rule="evenodd" clip-rule="evenodd" fill="#FFFFFF" d="M58.044,45c-1.734,1.599-2.166,4.501-2,8
		c-2.322,1.345-5.678,1.655-8,3c2.85,2.816-0.995,12.328,6,11c-2.459,10.898-0.793,26.048,2,35c-11.312-13.355-17.093-32.24-21-53
		c22.694-7.676,39.771-12.297,58-19c3.299,3.702,1.701,12.298,5,16C84.872,48.716,71.761,45.89,58.044,45z"/>
	<path fill-rule="evenodd" clip-rule="evenodd" fill="#FFFFFF" d="M119.044,49c1.819,5.176-2.761,12.556-2,20
		c-13.776-4.494-23.01-8.787-37-14c-5.186,4.481-12.439,6.895-14,15c-0.467,2.134,1.429,1.905,3,2c-4.673,9.994-8.599,20.734-10,34
		c-7.724-15.617-4.818-42.206-1-60C81.7,48.664,95.709,48.584,119.044,49z"/>
	<path fill-rule="evenodd" clip-rule="evenodd" fill="#FFFFFF" d="M22.044,48c2.726,7.274-0.175,14.902-1,3
		C22.216,50.838,21.887,49.177,22.044,48z"/>
	<path fill-rule="evenodd" clip-rule="evenodd" fill="#FFFFFF" d="M19.044,55c2.002,1.331,2.228,4.439,3,7
		C18.885,61.826,19.333,58.044,19.044,55z"/>
	<path fill-rule="evenodd" clip-rule="evenodd" fill="#FFFFFF" d="M137.044,77c-9.951,18.467-22.661,39.225-18,69
		c-19.472-6.528-38.21-13.79-57-21c-5.982-27.779,6.788-51.076,17-69C98.247,63.13,116.452,71.258,137.044,77z M82.044,84
		c-0.079,4.921-1.961,8.039-3,12c2.834,0.101,6.613-3.964,8-2c-1.992,8.674-5.113,16.22-6,26c7.154,0.846,11.674,4.325,18,6
		c0.671-18.662,7.361-31.305,13-45C102.134,73.11,92.936,82.006,82.044,84z"/>
	<path fill-rule="evenodd" clip-rule="evenodd" d="M112.044,81c-5.639,13.695-12.329,26.338-13,45c-6.326-1.675-10.846-5.154-18-6
		c0.887-9.78,4.008-17.326,6-26c-1.387-1.964-5.166,2.101-8,2c1.039-3.961,2.921-7.079,3-12C92.936,82.006,102.134,73.11,112.044,81
		z"/>
	<path fill-rule="evenodd" clip-rule="evenodd" fill="#FFFFFF" d="M125.044,120c-1.333,0-2.667,0-4,0c-0.132-2.465-0.151-4.818,1-6
		C123.642,115.402,124.599,117.445,125.044,120z"/>
	<path fill-rule="evenodd" clip-rule="evenodd" d="M53.044,101c-9.465-14.535-16.415-31.585-19-53c4.261-0.739,9.345-0.655,8-7
		c5.162-1.171,9.453-3.214,15-4c0.423,2.09-0.686,2.648-1,4c10.834-3.166,20.524-7.476,32-10c1.963-0.758-2.713-3.192-1-7
		c-17.613,0.475-29.518,4.684-47,8c-2.859,0.542-13.936,3.006-11,0c16.285-1.44,27.009-6.104,41-7c-7.928-4.749-5.905,0.643-12-3
		c6.711-1.808,9.328,1.658,15-1c2.704,0.878-2.109,3.169-3,1c1.268,5.543,3.768,0.648,6-1c1.401,0.354,0.086,1.761-1,2
		c4.079-1.667,7.362,0.069,10-2c1.377-0.149-0.427,4.066,2,1c1.734,1.599,2.166,4.501,2,8c2.483,0.15,4.15-0.517,5-2
		c2.788,5.545,3.194,13.472,5,20c5.406-1.556,14.075,0.956,22,0c-0.292,7.708-2.466,13.534-3,21c5.923,3.411,13.878,4.789,20,8
		c-4.824,13.785-20.724,28.848-11,45c-2.348-0.319-3.754-1.58-7-1c-0.924,9.239-1.7,19.093,1,27c-21.074-6.926-41.74-14.259-61-23
		c-0.936-6.397-0.1-14.566-3-19c-16.352-0.394-30.072-1.436-49-1c1.136-28.864,1.165-58.835,2-88c6.097-4.236,11.906-8.76,17-14
		c16.167,2.467,45.498-0.383,65,2c0.242,6.575-0.046,12.62-1,18c-3.834,0.182-0.362-0.818-1-3c-16.706-2.571-42.682-2.921-63-1
		c2.937,6.083,9.604-0.238,16,3c-0.736,2.99-11.589-0.11-17,1c-3.071,23.263-0.753,51.914-3,76c1.386,2.28,6.96,0.373,10,1
		c-7.527-16.474-4.807-43.193-7-65c5.065,22.602-1.551,56.884,13,70C44.099,104.055,47.296,101.253,53.044,101z M13.044,30
		c3.458-3.876,8.694-5.972,13-9c0.169-5.164-0.619-11.286,1-15c-5.835,1.038-4.757,5.064-6,9c-0.228-1.772,1.008-5.008-2-4
		c-0.7,4.271,1.809,13.082-4,16c-3.319-2.589-0.714-15.188,2-8c-0.569-3.236,0.303-5.03,2-6C11.221,13.377,11.027,25.473,13.044,30z
		 M12.044,31c0.1,4.1,0.197,8.197-1,11c4.984-5.601,3.434,7.556,6-1c-0.319,1.225,0.161,6.176,1,3c-0.708-3.708,1.708-4.292,1-8
		c-0.614-1.386-3.85-0.15-4-2c-0.279-2.279,0.241-3.759,2-4c-0.871,5.366,3.321,1.625,5,1c-0.003,1.003,0.81,1.19,1,2
		c-0.776,0.224-1.973,0.027-2,1c3.859,3.915,3.937-8.265,2-10C18.616,28.763,19.296,28.17,12.044,31z M21.044,51
		c0.825,11.902,3.726,4.274,1-3C21.887,49.177,22.216,50.838,21.044,51z M22.044,62c-0.772-2.561-0.998-5.669-3-7
		C19.333,58.044,18.885,61.826,22.044,62z M58.044,46c-3.818,17.794-6.724,44.383,1,60c1.401-13.266,5.327-24.006,10-34
		c-1.571-0.095-3.467,0.134-3-2c1.561-8.105,8.814-10.519,14-15c13.99,5.213,23.224,9.506,37,14c-0.761-7.444,3.819-14.824,2-20
		C95.709,48.584,81.7,48.664,58.044,46z M79.044,56c-10.212,17.924-22.982,41.221-17,69c18.79,7.21,37.528,14.472,57,21
		c-4.661-29.775,8.049-50.533,18-69C116.452,71.258,98.247,63.13,79.044,56z M122.044,114c-1.151,1.182-1.132,3.535-1,6
		c1.333,0,2.667,0,4,0C124.599,117.445,123.642,115.402,122.044,114z M98.044,46c-3.299-3.702-1.701-12.298-5-16
		c-18.229,6.703-35.306,11.324-58,19c3.907,20.76,9.688,39.645,21,53c-2.793-8.952-4.459-24.102-2-35c-6.995,1.328-3.15-8.184-6-11
		c2.322-1.345,5.678-1.655,8-3c-0.166-3.499,0.266-6.401,2-8C71.761,45.89,84.872,48.716,98.044,46z"/>
	<path fill-rule="evenodd" clip-rule="evenodd" fill="#FFFFFF" d="M1.044,0c49.667,0,99.333,0,149,0c0,50,0,100,0,150
		c-50,0-100,0-150,0c0-49,0-98,0-147C-0.042,1.581-0.121,0.168,1.044,0z M39.044,105c-14.551-13.116-7.935-47.398-13-70
		c2.193,21.807-0.527,48.526,7,65c-3.04-0.627-8.614,1.28-10-1c2.247-24.086-0.071-52.737,3-76c5.411-1.11,16.264,1.99,17-1
		c-6.396-3.238-13.063,3.083-16-3c20.318-1.921,46.294-1.571,63,1c0.638,2.182-2.834,3.182,1,3c0.954-5.38,1.242-11.425,1-18
		c-19.502-2.383-48.833,0.467-65-2c-5.094,5.24-10.903,9.764-17,14c-0.835,29.165-0.864,59.136-2,88c18.928-0.436,32.648,0.606,49,1
		c2.9,4.434,2.064,12.603,3,19c19.26,8.741,39.926,16.074,61,23c-2.7-7.907-1.924-17.761-1-27c3.246-0.58,4.652,0.681,7,1
		c-9.724-16.152,6.176-31.215,11-45c-6.122-3.211-14.077-4.589-20-8c0.534-7.466,2.708-13.292,3-21c-7.925,0.956-16.594-1.556-22,0
		c-1.806-6.528-2.212-14.455-5-20c-0.85,1.483-2.517,2.15-5,2c0.166-3.499-0.266-6.401-2-8c-2.427,3.066-0.623-1.149-2-1
		c-2.638,2.069-5.921,0.333-10,2c1.086-0.239,2.401-1.646,1-2c-2.232,1.648-4.732,6.543-6,1c0.891,2.169,5.704-0.122,3-1
		c-5.672,2.658-8.289-0.808-15,1c6.095,3.643,4.072-1.749,12,3c-13.991,0.896-24.715,5.56-41,7c-2.936,3.006,8.141,0.542,11,0
		c17.482-3.316,29.387-7.525,47-8c-1.713,3.808,2.963,6.242,1,7c-11.476,2.524-21.166,6.834-32,10c0.314-1.352,1.423-1.91,1-4
		c-5.547,0.786-9.838,2.829-15,4c1.345,6.345-3.739,6.261-8,7c2.585,21.415,9.535,38.465,19,53
		C47.296,101.253,44.099,104.055,39.044,105z M47.044,21c0,0.667,0,1.333,0,2c1.003-0.003,1.19,0.81,2,1
		c1.072-2.35,7.319-0.259,10-1C55.646,19.518,51.8,22.197,47.044,21z"/>
	<path fill-rule="evenodd" clip-rule="evenodd" fill="#FFFFFF" d="M19.044,13c-1.697,0.97-2.569,2.764-2,6
		c-2.714-7.188-5.319,5.411-2,8c5.809-2.918,3.3-11.729,4-16c3.008-1.008,1.772,2.228,2,4c1.243-3.936,0.165-7.962,6-9
		c-1.619,3.714-0.831,9.836-1,15c-4.306,3.028-9.542,5.124-13,9C11.027,25.473,11.221,13.377,19.044,13z"/>
	<path fill-rule="evenodd" clip-rule="evenodd" fill="#FFFFFF" d="M23.044,24c1.937,1.735,1.859,13.915-2,10
		c0.027-0.973,1.224-0.776,2-1c-0.19-0.81-1.003-0.997-1-2c-1.679,0.625-5.871,4.366-5-1c-1.759,0.241-2.279,1.721-2,4
		c0.15,1.85,3.386,0.614,4,2c0.708,3.708-1.708,4.292-1,8c-0.839,3.176-1.319-1.775-1-3c-2.566,8.556-1.016-4.601-6,1
		c1.197-2.803,1.1-6.9,1-11C19.296,28.17,18.616,28.763,23.044,24z"/>
</g>
</svg>
