<?xml version="1.0" encoding="utf-8"?>
<!-- Generator: Adobe Illustrator 15.0.0, SVG Export Plug-In . SVG Version: 6.00 Build 0)  -->
<!DOCTYPE svg PUBLIC "-//W3C//DTD SVG 1.1//EN" "http://www.w3.org/Graphics/SVG/1.1/DTD/svg11.dtd">
<svg version="1.1" id="Ebene_1" xmlns="http://www.w3.org/2000/svg" xmlns:xlink="http://www.w3.org/1999/xlink" x="0px" y="0px"
	 width="158.74px" height="158.74px" viewBox="0 -2.835 158.74 158.74" enable-background="new 0 -2.835 158.74 158.74"
	 xml:space="preserve">
<ellipse cx="79.37" cy="76.536" rx="77.913" ry="75.117"/>
<g>
	<path d="M42.889,119.094c-7.031,0-12.751-5.721-12.751-12.751V55.87c0-7.03,5.72-12.751,12.751-12.751h22.447v-6.853
		c-4.692-1.502-8.878-3.143-8.878-7.956c0-7.026,9.851-12.327,22.913-12.327c13.062,0,22.913,5.301,22.913,12.327
		c0,4.813-4.186,6.454-8.879,7.956v6.853h22.447c7.031,0,12.752,5.721,12.752,12.751v50.473c0,7.03-5.721,12.751-12.752,12.751
		H42.889z"/>
	<path fill="#FFFFFF" d="M79.37,18.819c11.089,0,20.079,4.252,20.079,9.492c0,3.281-3.523,4.176-8.878,5.881v11.763h25.281
		c5.477,0,9.916,4.438,9.916,9.916v50.473c0,5.479-4.439,9.916-9.916,9.916H42.889c-5.477,0-9.917-4.438-9.917-9.916V55.87
		c0-5.478,4.44-9.916,9.917-9.916H68.17V34.192c-5.355-1.705-8.878-2.6-8.878-5.881C59.292,23.071,68.281,18.819,79.37,18.819
		 M79.37,13.15c-14.919,0-25.748,6.376-25.748,15.161c0,5.908,4.39,8.376,8.878,9.991v1.982H42.889
		c-8.594,0-15.586,6.99-15.586,15.585v50.473c0,8.594,6.992,15.585,15.586,15.585h72.963c8.594,0,15.586-6.991,15.586-15.585V55.87
		c0-8.595-6.992-15.585-15.586-15.585H96.24v-1.982c4.489-1.615,8.878-4.083,8.878-9.991C105.118,19.526,94.29,13.15,79.37,13.15
		L79.37,13.15z"/>
</g>
<g>
	<g>
		<path fill="#FFFFFF" d="M72.429,96.175c-2.117-1.829-3.424-3.006-3.997-3.597l-2.219-2.275l-2.637-2.661
			c-0.823-0.821-1.927-1.864-3.279-3.097l-3.461-3.196v2.269c0,0.432,0.041,1.852,0.12,4.223c0.101,3.061,0.195,3.862,0.242,4.068
			c0.085,0.384,0.193,0.533,0.25,0.59c0.103,0.103,0.219,0.162,0.369,0.19c0.135,0.026,0.724,0.093,3.169,0.248l0.194,0.013
			l0.607,0.535v1.729l-0.567,0.639l-0.277-0.019c-2.432-0.158-4.852-0.238-7.194-0.238c-2.322,0-4.732,0.08-7.163,0.238
			l-0.256,0.017l-0.618-0.618v-1.748l0.608-0.535l0.194-0.013c2.644-0.164,3.111-0.237,3.191-0.257
			c0.147-0.036,0.272-0.108,0.388-0.225c0.104-0.104,0.185-0.302,0.234-0.569c0.044-0.248,0.121-1.109,0.231-3.786
			c0.089-2.174,0.135-3.832,0.135-4.93V67.658l-0.121-6.34c-0.059-2.184-0.124-3.726-0.193-4.576
			c-0.081-0.988-0.175-1.227-0.19-1.258l0,0c-0.004,0-0.078-0.066-0.303-0.126c-0.119-0.03-0.691-0.101-3.487-0.101h-0.234
			l-0.603-0.603v-1.709l0.527-0.592l0.215-0.024c3.753-0.434,6.955-1.166,9.517-2.183l0.268-0.104l1.109,0.697l-0.033,0.349
			c-0.217,2.267-0.328,6.894-0.328,13.752v12.985c0.734-0.525,1.77-1.325,3.098-2.393c1.982-1.594,4.107-3.438,6.315-5.482
			c2.766-2.563,3.246-3.107,3.324-3.224l0.135-0.398l0.381,0.102c1.689,0.058,2.702,0.089,3.041,0.089
			c0.456,0,1.378-0.031,2.767-0.089l0.249-0.011l0.612,0.612v1.619l-0.541,0.604l-0.232,0.014c-0.936,0.058-1.653,0.176-2.132,0.354
			c-0.329,0.124-1.139,0.558-3.118,1.914c-1.611,1.104-3.542,2.575-5.737,4.372l-2.456,1.998c1.099,1.238,2.829,3.035,5.153,5.353
			c2.602,2.601,4.759,4.664,6.412,6.134c2.075,1.845,2.804,2.296,3.053,2.401c0.432,0.18,0.894,0.271,1.37,0.271h0.567v2.32
			l-0.46,0.088c-0.711,0.136-2.612,0.744-5.649,1.807l-0.31,0.108L72.429,96.175z"/>
		<path fill="#FFFFFF" d="M56.028,50.677l0.57,0.359c-0.22,2.297-0.33,6.897-0.33,13.806v14.046c0.68-0.4,2.021-1.405,4.02-3.01
			c2-1.608,4.115-3.444,6.346-5.51c2.23-2.067,3.375-3.192,3.436-3.37c1.7,0.059,2.72,0.09,3.06,0.09c0.46,0,1.39-0.031,2.791-0.09
			l0.271,0.271v1.168l-0.24,0.269c-1.001,0.061-1.766,0.19-2.295,0.389c-0.53,0.2-1.61,0.86-3.241,1.978
			c-1.63,1.118-3.555,2.585-5.776,4.401l-2.91,2.368c1.06,1.237,2.915,3.18,5.565,5.822c2.65,2.647,4.795,4.696,6.436,6.155
			c1.64,1.458,2.71,2.29,3.21,2.5c0.5,0.208,1.03,0.315,1.59,0.315v1.284c-0.74,0.142-2.651,0.751-5.73,1.828
			c-2.081-1.799-3.401-2.985-3.96-3.563l-2.221-2.276l-2.64-2.664c-0.82-0.818-1.92-1.858-3.3-3.116l-4.41-4.072v3.563
			c0,0.439,0.04,1.854,0.12,4.24c0.079,2.385,0.165,3.777,0.255,4.177c0.089,0.399,0.224,0.688,0.404,0.866
			c0.18,0.182,0.4,0.295,0.66,0.346c0.259,0.051,1.34,0.137,3.24,0.257l0.27,0.238v1.258l-0.24,0.271
			c-2.5-0.163-4.911-0.24-7.231-0.24c-2.299,0-4.7,0.077-7.2,0.24l-0.271-0.271v-1.26l0.271-0.237
			c1.94-0.12,3.036-0.212,3.286-0.271c0.25-0.062,0.469-0.185,0.66-0.375c0.19-0.189,0.319-0.479,0.391-0.868
			c0.069-0.391,0.149-1.678,0.24-3.864c0.09-2.185,0.135-3.836,0.135-4.953V67.658l-0.121-6.351
			c-0.06-2.217-0.125-3.755-0.195-4.612c-0.07-0.858-0.165-1.367-0.285-1.525c-0.12-0.161-0.331-0.281-0.63-0.359
			c-0.3-0.08-1.511-0.119-3.63-0.119l-0.27-0.27v-1.258l0.24-0.271C50.187,52.454,53.407,51.715,56.028,50.677 M56.146,49.41
			l-0.535,0.213c-2.516,0.996-5.67,1.718-9.374,2.146l-0.43,0.049l-0.288,0.323l-0.24,0.271l-0.287,0.321v0.433v1.258v0.471
			l0.333,0.332l0.27,0.271l0.332,0.331h0.469c2.418,0,3.116,0.053,3.312,0.078c0.029,0.16,0.067,0.436,0.104,0.885
			c0.068,0.842,0.133,2.373,0.191,4.551l0.12,6.341v15.49c0,1.09-0.045,2.74-0.134,4.906c-0.119,2.889-0.196,3.56-0.223,3.714
			c-0.038,0.207-0.087,0.275-0.087,0.276c-0.038,0.036-0.074,0.054-0.118,0.063c-0.042,0.007-0.498,0.079-3.085,0.239l-0.388,0.023
			l-0.292,0.257l-0.271,0.238l-0.384,0.338v0.514v1.258v0.47l0.332,0.332l0.271,0.271l0.363,0.363l0.512-0.033
			c2.419-0.157,4.817-0.237,7.126-0.237c2.33,0,4.737,0.08,7.157,0.237l0.553,0.036l0.368-0.415l0.24-0.271l0.286-0.322v-0.431
			v-1.26v-0.512l-0.384-0.339l-0.27-0.238l-0.291-0.257L61.02,92.37c-2.538-0.16-3.011-0.224-3.096-0.238
			c-0.049-0.009-0.061-0.021-0.072-0.031l0,0c0.002,0-0.051-0.085-0.102-0.313c-0.027-0.123-0.123-0.758-0.229-3.967
			c-0.08-2.364-0.12-3.778-0.12-4.203v-0.974l2.507,2.315c1.351,1.23,2.449,2.269,3.269,3.086l2.635,2.66l2.215,2.271
			c0.582,0.602,1.901,1.788,4.031,3.629l0.496,0.43l0.62-0.218c3.751-1.313,5.099-1.694,5.568-1.785l0.921-0.176v-0.938v-1.284V91.5
			H78.53c-0.407,0-0.785-0.075-1.154-0.229c-0.094-0.039-0.689-0.342-2.893-2.301c-1.645-1.462-3.793-3.519-6.387-6.11
			c-2.055-2.048-3.641-3.686-4.734-4.888l1.993-1.622c2.186-1.787,4.103-3.249,5.702-4.346c2.034-1.395,2.752-1.758,3-1.853
			c0.288-0.106,0.867-0.251,1.963-0.316l0.464-0.028l0.311-0.346l0.24-0.269l0.29-0.322v-0.436v-1.168v-0.47l-0.332-0.332
			l-0.271-0.271l-0.352-0.352l-0.497,0.021c-1.449,0.062-2.32,0.09-2.743,0.09c-0.385,0-1.817-0.049-3.021-0.09l-0.843-0.028
			l-0.215,0.637c-0.195,0.22-0.869,0.915-3.188,3.063c-2.199,2.035-4.313,3.871-6.285,5.458c-0.907,0.729-1.618,1.282-2.176,1.707
			V64.842c0-6.841,0.109-11.449,0.325-13.697l0.066-0.694l-0.591-0.372l-0.57-0.359L56.146,49.41L56.146,49.41z"/>
	</g>
	<g>
		<path fill="#FFFFFF" d="M94.163,112.785c-1.77,0-3.467-0.198-5.042-0.588c-1.583-0.392-2.995-0.996-4.199-1.802
			c-1.219-0.813-2.213-1.89-2.954-3.203c-0.746-1.314-1.123-2.709-1.123-4.139c0-0.789,0.117-1.621,0.35-2.474
			c0.234-0.862,0.684-1.797,1.332-2.779l0.076-0.115l4.438-2.474c-1.17-0.44-1.921-0.883-2.327-1.363
			c-0.537-0.629-0.81-1.392-0.81-2.266c0-0.844,0.271-1.832,0.808-2.941l0.063-0.129l4.002-2.88c-2.36-0.767-4.02-1.85-4.941-3.229
			c-1.049-1.564-1.582-3.304-1.582-5.168c0-1.692,0.372-3.331,1.105-4.868c0.744-1.56,1.879-2.823,3.377-3.758
			c1.453-0.902,3.095-1.625,4.882-2.144c1.788-0.521,3.452-0.785,4.944-0.785c2.556,0,5.018,0.816,7.319,2.426
			c3.488-0.001,6.337-0.041,8.472-0.119l0.381-0.014l0.521,1.168l-0.168,0.259c-0.811,1.246-1.316,2.059-1.503,2.412l-0.159,0.304
			h-5.05c0.354,0.927,0.535,1.891,0.535,2.876c0,1.496-0.347,2.971-1.031,4.382c-0.685,1.405-1.649,2.619-2.871,3.605
			c-1.2,0.972-2.581,1.756-4.1,2.335c-1.528,0.581-3.287,0.876-5.228,0.876H92.5c-1.299,1.041-1.817,1.588-2.022,1.866
			c-0.269,0.36-0.398,0.71-0.398,1.069c0,0.654,0.271,1.067,0.878,1.337c0.503,0.225,1.742,0.491,4.795,0.491l6.714-0.088
			c2.229-0.002,3.896,0.261,5.112,0.797c1.241,0.55,2.256,1.534,3.014,2.929c0.743,1.363,1.119,2.83,1.119,4.357
			c0,2.297-0.752,4.612-2.237,6.885c-1.486,2.271-3.656,4.02-6.449,5.195C100.263,112.195,97.28,112.785,94.163,112.785z
			 M96.772,96.163c-4.148,0-5.213,0.069-5.478,0.111c-0.276,0.046-0.828,0.244-1.86,0.932c-0.82,0.548-1.502,1.304-2.022,2.244
			c-0.521,0.937-0.784,2.008-0.784,3.184c0,2.099,0.76,3.76,2.318,5.079c1.568,1.32,3.705,1.99,6.354,1.99
			c2.003,0,3.876-0.425,5.569-1.261c1.668-0.819,2.915-1.934,3.705-3.308c0.796-1.385,1.199-2.72,1.199-3.967
			c0-1.246-0.313-2.279-0.955-3.157c-0.625-0.853-1.414-1.357-2.408-1.544C101.319,96.266,99.421,96.163,96.772,96.163z
			 M94.401,69.004c-1.682,0-3.051,0.53-4.182,1.621c-1.109,1.07-1.672,2.712-1.672,4.877c0,1.147,0.232,2.406,0.689,3.737
			c0.441,1.29,1.13,2.234,2.104,2.89c0.982,0.661,2.061,0.98,3.301,0.98c1.65,0,3.033-0.52,4.227-1.59
			c1.158-1.043,1.747-2.725,1.747-5c0-1.942-0.562-3.718-1.666-5.271C97.875,69.738,96.388,69.004,94.401,69.004z"/>
		<path fill="#FFFFFF" d="M96.562,66.25c2.5,0,4.881,0.807,7.141,2.426c3.621,0,6.511-0.041,8.671-0.12l0.239,0.537
			c-0.819,1.261-1.329,2.078-1.529,2.457h-5.58c0.561,1.099,0.84,2.245,0.84,3.443c0,1.419-0.326,2.797-0.975,4.135
			c-0.651,1.338-1.557,2.475-2.717,3.412s-2.476,1.687-3.945,2.246c-1.469,0.559-3.146,0.839-5.025,0.839h-1.38
			c-1.181,0.938-1.94,1.637-2.28,2.096c-0.34,0.458-0.511,0.929-0.511,1.407c0,0.879,0.405,1.496,1.216,1.854
			c0.81,0.361,2.483,0.54,5.024,0.54l6.722-0.089c2.119,0,3.745,0.25,4.875,0.749c1.129,0.5,2.043,1.395,2.744,2.681
			c0.7,1.286,1.051,2.648,1.051,4.088c0,2.193-0.716,4.387-2.146,6.573c-1.431,2.187-3.495,3.848-6.196,4.984
			s-5.58,1.708-8.64,1.708c-1.74,0-3.376-0.192-4.907-0.57s-2.87-0.954-4.02-1.723c-1.151-0.767-2.076-1.771-2.775-3.01
			c-0.701-1.237-1.05-2.525-1.05-3.86c0-0.74,0.108-1.515,0.329-2.324c0.221-0.807,0.641-1.68,1.26-2.616l5.432-3.027
			c-1.74-0.536-2.834-1.069-3.285-1.604c-0.451-0.526-0.677-1.162-0.677-1.898c0-0.759,0.25-1.658,0.751-2.694l4.83-3.475
			c-2.84-0.738-4.755-1.846-5.744-3.325c-0.992-1.479-1.486-3.093-1.486-4.854c0-1.614,0.35-3.155,1.05-4.625
			c0.7-1.467,1.754-2.64,3.166-3.52c1.409-0.877,2.989-1.572,4.739-2.08C93.526,66.503,95.122,66.25,96.562,66.25 M94.642,83.678
			c1.78,0,3.315-0.578,4.605-1.735c1.29-1.159,1.936-2.966,1.936-5.422c0-2.075-0.591-3.94-1.771-5.601
			c-1.181-1.657-2.851-2.483-5.011-2.483c-1.82,0-3.344,0.594-4.575,1.78c-1.229,1.188-1.845,2.948-1.845,5.285
			c0,1.219,0.24,2.524,0.72,3.923c0.479,1.4,1.255,2.457,2.325,3.175C92.097,83.32,93.301,83.678,94.642,83.678 M95.302,110.271
			c2.1,0,4.04-0.438,5.82-1.317c1.781-0.876,3.095-2.056,3.945-3.534s1.275-2.896,1.275-4.249c0-1.361-0.355-2.523-1.064-3.492
			c-0.711-0.969-1.631-1.555-2.762-1.767c-1.129-0.209-3.045-0.314-5.744-0.314c-3.222,0-5.076,0.042-5.566,0.12
			c-0.49,0.08-1.186,0.42-2.084,1.018c-0.9,0.603-1.635,1.413-2.206,2.442c-0.569,1.026-0.854,2.183-0.854,3.458
			c0,2.256,0.84,4.092,2.521,5.512C90.261,109.562,92.501,110.271,95.302,110.271 M96.562,65.115c-1.545,0-3.262,0.271-5.103,0.809
			c-1.835,0.533-3.526,1.274-5.022,2.206c-1.59,0.992-2.799,2.336-3.59,3.994c-0.77,1.613-1.16,3.335-1.16,5.112
			c0,1.979,0.563,3.823,1.678,5.484c0.863,1.291,2.248,2.31,4.203,3.084l-3.008,2.163l-0.234,0.169L84.2,88.396
			c-0.581,1.203-0.864,2.246-0.864,3.188c0,1.013,0.319,1.898,0.947,2.636c0.315,0.374,0.799,0.722,1.476,1.058l-3.313,1.848
			l-0.24,0.135l-0.152,0.229c-0.683,1.033-1.156,2.023-1.408,2.944c-0.244,0.9-0.369,1.782-0.369,2.622
			c0,1.529,0.402,3.016,1.197,4.419c0.783,1.39,1.838,2.532,3.133,3.396c1.256,0.841,2.729,1.474,4.375,1.88
			c1.621,0.399,3.365,0.604,5.18,0.604c3.195,0,6.25-0.604,9.081-1.797c2.897-1.222,5.153-3.041,6.704-5.408
			c1.546-2.364,2.33-4.786,2.33-7.194c0-1.623-0.4-3.182-1.188-4.629c-0.817-1.506-1.923-2.573-3.28-3.177
			c-1.291-0.568-3.035-0.846-5.334-0.846l-6.736,0.089c-3.094,0-4.178-0.276-4.549-0.44c-0.401-0.18-0.543-0.394-0.543-0.82
			c0-0.232,0.095-0.472,0.287-0.73c0.146-0.198,0.568-0.667,1.769-1.639h0.981c2.008,0,3.834-0.307,5.428-0.913
			c1.576-0.6,3.007-1.415,4.255-2.424c1.286-1.039,2.303-2.316,3.022-3.798c0.723-1.49,1.09-3.048,1.09-4.631
			c0-0.785-0.106-1.559-0.317-2.311h3.923h0.684l0.319-0.604c0.179-0.34,0.677-1.137,1.478-2.367l0.336-0.518l-0.252-0.563
			l-0.239-0.537l-0.312-0.699l-0.766,0.028c-2.09,0.076-4.873,0.116-8.273,0.119C101.702,65.932,99.183,65.115,96.562,65.115
			L96.562,65.115z M94.642,82.544c-1.121,0-2.098-0.289-2.981-0.885c-0.869-0.584-1.485-1.436-1.886-2.603
			c-0.438-1.272-0.658-2.47-0.658-3.556c0-2.006,0.504-3.509,1.499-4.471c1.02-0.982,2.259-1.462,3.788-1.462
			c1.787,0,3.125,0.656,4.086,2.009c1.05,1.476,1.561,3.093,1.561,4.941c0,2.107-0.525,3.648-1.56,4.579
			C97.405,82.071,96.147,82.544,94.642,82.544L94.642,82.544z M95.302,109.137c-2.512,0-4.527-0.625-5.988-1.858
			c-1.426-1.202-2.119-2.723-2.119-4.645c0-1.078,0.24-2.057,0.713-2.907c0.484-0.874,1.087-1.545,1.844-2.051
			c1.033-0.688,1.489-0.816,1.637-0.841c0.196-0.031,1.121-0.105,5.383-0.105c2.615,0,4.479,0.101,5.539,0.296
			c0.844,0.158,1.518,0.592,2.053,1.322c0.57,0.776,0.847,1.7,0.847,2.821c0,1.146-0.378,2.386-1.125,3.684
			c-0.733,1.275-1.897,2.313-3.463,3.082C99.006,108.732,97.216,109.137,95.302,109.137L95.302,109.137z"/>
	</g>
</g>
</svg>
