<?xml version="1.0" encoding="utf-8"?>
<!-- Generator: Adobe Illustrator 15.0.0, SVG Export Plug-In . SVG Version: 6.00 Build 0)  -->
<!DOCTYPE svg PUBLIC "-//W3C//DTD SVG 1.1//EN" "http://www.w3.org/Graphics/SVG/1.1/DTD/svg11.dtd">
<svg version="1.1" id="Ebene_1" xmlns="http://www.w3.org/2000/svg" xmlns:xlink="http://www.w3.org/1999/xlink" x="0px" y="0px"
	 width="141.73px" height="68.029px" viewBox="0 0 141.73 68.029" enable-background="new 0 0 141.73 68.029" xml:space="preserve">
<g>
	<path d="M3.901,22.223c-0.018-1.542-0.148-2.663,0.129-4.06c-0.803-0.672-2.022-0.961-2.968-1.649
		c-0.341-0.247-0.708-0.549-0.774-0.761c-0.406-1.291,0.789-2.589,1.161-3.808c1.523-0.402,3.112,0.13,4.389,0.382
		c0.975-0.988,1.739-2.183,2.582-3.3C8.232,8.291,7.842,7.856,7.515,7.125c-0.247-0.55-0.777-1.357-0.646-2.03
		c0.125-0.641,2.317-2.289,3.228-2.283c1.438,0.01,2.511,2.038,3.354,2.792c1.35-0.408,2.597-0.917,4.13-1.144
		c0.13-1.647,0.396-3.162,1.032-4.313c1.114-0.197,2.888-0.197,4.001,0c0.64,1.063,0.997,2.403,0.904,4.188
		c1.175,0.663,2.791,0.895,4.001,1.521c1.331-0.651,1.893-2.612,3.483-2.664c1.306-0.042,2.17,1.431,3.228,2.156
		c-0.039,1.866-1.055,2.771-1.679,4.062c0.719,1.28,1.662,2.341,2.452,3.552c1.215-0.387,3.177-0.753,4.518-0.254
		c0.173,1.305,1.288,2.432,1.032,3.554c-0.269,1.179-2.75,1.81-3.872,2.282c0.002,1.438,0.044,2.92-0.128,4.188
		c1.006,0.706,3.697,1.354,3.87,2.664c0.117,0.885-1.041,2.464-1.291,3.427c0.406,0.235,1.016,0.271,1.679,0.254
		c0.561-0.803,0.771-1.946,1.29-2.791c-0.944-1.187-2.515-1.759-3.098-3.299c0.596-1.233,1.158-2.5,2.193-3.301
		c1.714,0.05,2.74,0.775,4.001,1.271c0.923-0.616,1.572-1.501,2.193-2.412c-0.426-1.249-1.869-2.263-1.679-3.679
		c0.079-0.576,0.802-1.135,1.292-1.522c0.455-0.361,1.146-0.984,1.678-1.015c1.528-0.085,2.552,1.923,3.612,2.537
		c0.993-0.464,1.929-0.982,2.839-1.522c-0.269-1.408-0.704-3.025-0.257-4.44c1.185-0.4,2.281-0.888,3.613-1.142
		c1.132,0.875,1.871,2.137,2.323,3.68c1.229-0.018,2.197-0.293,3.354-0.381c0.261-1.521,0.386-3.175,1.162-4.187
		c1.081-0.321,2.562-0.124,3.872,0c0.762,0.983,1.027,2.457,1.032,4.187c0.84,0.483,2.112,0.545,3.228,0.761
		c0.743-0.738,1.268-3.153,2.581-3.426c1.241-0.256,2.359,0.917,3.612,1.27c0.381,1.468-0.125,3.063-0.515,4.187
		c0.612,0.918,1.896,1.182,2.709,1.904c0.659-0.313,1.043-0.923,1.678-1.396c0.523-0.392,1.287-1.035,1.936-1.015
		c0.649,0.021,1.157,0.671,1.68,1.143c0.402,0.364,1.192,0.877,1.29,1.396c0.295,1.589-1.427,2.625-1.938,3.806
		c0.595,0.941,1.298,1.771,2.066,2.538c1.32-0.436,2.372-1.136,4.259-1.015c0.716,1.157,1.687,2.063,1.808,3.807
		c1.17-0.232,2.214-0.252,3.483-0.127c0.76-1.199,1.008-2.9,1.807-4.061c-0.361-1.051-2.815-1.985-2.839-3.427
		c-0.009-0.589,1.601-2.887,2.324-3.045c1.278-0.277,3.067,1.199,3.871,1.649c1.365-0.813,2.389-1.965,3.743-2.791
		c-0.329-1.406-1.395-2.94-0.774-4.188c0.254-0.513,2.572-1.613,3.354-1.521c1.514,0.177,1.884,2.26,2.711,3.426
		c1.464-0.253,2.921-0.511,4.518-0.635c0.532-1.464,0.563-3.422,1.807-4.188c1.28,0.141,2.808,0.032,3.612,0.637
		c0.503,1.02,0.635,2.677,0.389,4.059c1.253,0.714,3.024,0.918,4.131,1.778c1.255-0.84,1.939-2.238,3.483-2.793
		c1.281,0.476,2.24,1.266,3.099,2.157c-0.022,1.838-0.899,2.838-1.679,3.933c0.916,1.256,1.993,2.354,2.84,3.679
		c1.207-0.355,3.002-1.271,4.388-0.633c0.446,0.267,0.682,0.884,0.903,1.396c0.248,0.57,0.58,1.288,0.517,1.775
		c-0.207,1.569-2.512,1.83-3.484,2.791c0.336,1.32,0.572,2.734,0.646,4.313c1.492,0.394,3.209,0.565,4.129,1.521
		c0.371,1.063-0.23,2.211-0.129,3.426c-0.822,0.843-2.828,1.052-4.388,0.762c-0.819,1.139-1.071,2.838-1.809,4.06
		c0.262,1.065,2.672,2.029,2.711,3.426c0.016,0.583-1.477,2.859-2.193,3.046c-1.451,0.373-3.036-1.228-4.002-1.648
		c-1.269,0.91-2.354,2-3.742,2.791c0.554,1.147,0.964,2.436,0.902,4.187c-1.08,0.538-2.275,1.682-3.482,1.522
		c-1.346-0.178-1.991-2.472-2.711-3.425c-1.422,0.253-2.748,0.599-4.39,0.633c-0.641,1.356-0.606,3.38-1.808,4.188
		c-1.344,0.055-2.347-0.229-3.482-0.381c-0.825-0.839-0.625-2.685-0.646-4.313c-1.271-0.694-3-0.94-4.13-1.776
		c-0.944,0.495-2.11,2.777-3.485,2.791c-0.616,0.008-1.161-0.634-1.677-1.015c-0.421-0.312-1.298-0.712-1.42-1.269
		c-0.316-1.438,1.213-2.625,1.678-3.807c-0.903-1.228-1.865-2.396-2.84-3.553c-1.233,0.226-2.105,0.805-3.613,0.762
		c0.478,1.358-0.053,3.462-0.773,4.438c-1.092,0.221-2.903,0.185-4.003,0c-0.734,0.715-0.852,2.04-1.418,2.918
		c1.016,1.074,2.429,1.759,3.098,3.174c-0.512,1.272-1.181,2.392-2.064,3.298c-1.815,0.052-2.914-0.604-4.001-1.27
		c-0.978,0.604-1.639,1.52-2.324,2.411c0.269,0.879,1.014,1.289,1.422,2.03c-0.271,0.742,0.489,1.189,0.387,1.902
		c-0.104,0.704-2.366,2.496-3.099,2.536c-0.737,0.042-1.296-0.721-1.936-1.142c-0.641-0.422-1.146-0.908-1.679-1.523
		c-0.962,0.452-1.88,0.943-2.839,1.396c0.193,1.367,0.731,2.81,0.389,4.313c-0.396,0.493-1.048,0.53-1.679,0.761
		c-0.592,0.215-1.29,0.696-1.809,0.636c-1.684-0.203-1.809-2.604-2.71-3.808c-1.076,0.127-2.063,0.341-3.098,0.508
		c-0.335,1.573-0.427,3.387-1.42,4.313c-1.408,0.032-2.701-0.052-3.872-0.253c-0.59-1.11-0.975-2.427-0.902-4.188
		c-0.925-0.359-2.165-0.407-3.098-0.76c-0.812,0.761-1.525,3.342-2.84,3.551c-0.974,0.157-3.024-1.02-3.614-1.648
		c-0.082-1.604,0.299-2.752,0.646-3.933c-0.634-0.816-1.802-1.105-2.582-1.776c-1.311,0.281-2.049,2.438-3.871,2.283
		c-0.472-0.04-2.679-1.663-2.84-2.411c-0.324-1.51,1.356-2.661,1.937-3.806c-0.517-1.059-1.344-1.808-2.064-2.664
		c-1.149,0.484-2.614,1.309-4.13,1.016c-0.485-0.252-0.866-0.866-1.161-1.396c-0.281-0.506-0.791-1.355-0.773-1.776
		c0.046-1.22,2.231-2.366,3.226-2.917c-0.218-1.224-0.684-2.203-1.032-3.299c-1.454,0.265-3.335,0.141-4.388-0.382
		c-0.272-1.054-0.722-2.57-0.515-3.679c0.745-1.255,2.779-1.241,4.129-1.901c0-1.017,0-2.03,0-3.046
		c-1.36-0.65-3.146-0.884-4.001-2.031c0.239-1.541,0.23-3.325,1.291-4.062c-0.839-0.063-1.418-0.381-2.194-0.507
		c-1.017,0.989-1.699,2.308-2.711,3.299c0.402,1.346,1.969,2.347,1.55,4.061c-0.149,0.616-2.347,2.276-3.098,2.285
		c-1.388,0.015-2.537-2.347-3.484-2.919c-1.288,0.426-2.458,0.969-4.001,1.142c-0.169,1.737-0.335,3.479-1.291,4.441
		c-1.226-0.063-2.723,0.14-3.743-0.128c-0.816-0.931-0.813-2.669-1.031-4.188c-1.073-0.721-2.728-0.871-3.872-1.522
		c-0.771,0.337-1.234,1.401-2.065,2.029c-0.328,0.249-1.128,0.77-1.549,0.763c-0.585-0.009-1.161-0.758-1.678-1.142
		c-0.509-0.38-1.279-0.604-1.42-1.27C6.06,33.912,7.59,32.415,8.03,31.484c-0.698-1.346-1.692-2.396-2.453-3.68
		c-1.116,0.434-2.926,0.691-4.388,0.38c-0.531-0.993-0.923-2.214-1.162-3.171C-0.33,23.578,2.668,22.748,3.901,22.223z
		 M10.225,15.247c-1.368,2.576-1.985,5.938-0.646,8.881c2.021-0.766,3.574-1.984,5.42-2.919c0.066-1.039,0.052-1.893,0.389-2.79
		c0.214-0.574,0.68-0.791,0.645-1.397c-0.015-0.266-0.402-0.869-0.645-1.268c-0.83-1.365-1.608-2.58-2.323-3.808
		C11.767,12.415,10.95,13.879,10.225,15.247z M11.645,27.424c0,0.086,0,0.17,0,0.256c2.165,2.817,8.012,5.448,12.519,3.044
		c-1.101-1.667-2.033-3.499-3.098-5.202c-1.915,0.191-2.942-0.49-4.13-1.015C15.13,25.44,13.506,26.549,11.645,27.424z
		 M25.713,10.552c-2.42-1.285-6.337-1.994-9.164-0.763c-0.007,0.163-0.165,0.177-0.129,0.38c1.146,1.581,1.994,3.454,3.099,5.077
		c1.871-0.147,2.928,0.504,4.13,1.015c1.826-0.912,3.458-2.014,5.292-2.919C28.449,12.167,27.073,11.274,25.713,10.552z
		 M21.454,18.798c-2.057-1.276-4.608,1.878-1.937,3.425C22.263,22.875,22.906,19.699,21.454,18.798z M24.551,24
		c1.192,1.45,1.801,3.474,3.099,4.82c3.169-1.954,4.978-7.252,3.483-12.181c-2.147,0.764-3.796,2.021-5.679,3.044
		C25.769,21.729,24.754,22.466,24.551,24z M45.976,37.702c-0.099,1.985,0.534,4.305,1.161,6.091
		c1.269,3.628,3.265,6.349,5.936,8.627c0.942,0.805,3.306,3.092,4.646,2.664c0.649-0.208,0.772-1.238,1.033-2.157
		c0.248-0.872,0.742-2.061,0.646-2.665c-0.13-0.808-1.514-1.45-2.323-2.155c-2.994-2.609-4.821-6.266-5.162-10.911
		c-1.41-0.771-3.117-1.249-5.162-1.396C46.304,36.155,46.01,36.967,45.976,37.702z M61.462,17.911
		c-5.938,1.461-11.184,5.847-13.036,10.402c-0.132,0.328-0.042,0.131,0,0.508c0.354,0.617,4.207,1.705,5.035,1.521
		c0.772-0.171,1.319-1.447,2.064-2.283c2.771-3.117,6.48-4.507,11.229-5.074c0.499-1.504,1.406-3.262,1.161-5.074
		C65.975,16.74,63.445,17.422,61.462,17.911z M60.559,41.129c0.891,1.343,2.718,2.804,5.032,3.044
		c3.271,0.34,5.843-1.42,6.971-3.425c2.535-4.512-0.746-10.44-6.324-10.278c-1.737,0.051-4.347,1.564-4.904,2.156
		c-1.282,1.361-2.111,3.491-1.678,5.964C59.837,39.623,60.271,40.694,60.559,41.129z M65.075,56.986
		c1.33,0.599,2.901,0.449,4.26,0.256c1.299-0.188,2.766-0.51,3.871-0.89c1.092-0.373,2.053-1.104,3.099-1.648
		c1.159-0.604,2.271-1.101,3.098-1.776c2.225-1.822,4.146-4.205,5.162-6.851c-0.348-0.682-1.263-0.889-2.193-1.142
		c-0.927-0.255-2.147-0.758-2.84-0.636c-1.102,0.195-1.804,1.997-2.58,2.791c-2.516,2.57-6.29,4.234-10.713,4.568
		C65.634,53.1,64.538,55.252,65.075,56.986z M83.402,38.464c0.757,0.203,1.906,0.72,2.582,0.507c1.53-0.479,0.715-4.598,0.258-6.344
		c-0.607-2.316-1.375-4.195-2.323-5.709c-0.79-1.261-2.317-3.124-3.612-4.313c-0.782-0.717-3.979-3.311-5.034-3.046
		c-0.782,0.197-2.11,4.44-1.42,5.457c0.827,0.907,1.865,1.471,2.711,2.283c2.668,2.566,3.86,5.721,4.518,10.404
		C81.789,37.965,82.525,38.228,83.402,38.464z M91.404,27.424c0.268,1.133,0.676,2.129,1.032,3.173
		c1.661-0.021,3.507-0.253,4.518,0.634c0.211,1.104,0.444,2.188,0.518,3.427c-0.824,1.221-2.708,1.398-4.262,1.904
		c0,1.058,0,2.114,0,3.171c0.792,0.364,1.801,0.515,2.582,0.889c-0.097-1.249-1.189-1.855-1.032-2.918
		c0.19-1.275,2.693-2.084,3.485-2.664c-0.286-1.41-0.454-2.938-0.646-4.441c-1.482-0.544-3.898-0.398-4.261-1.902
		c-0.176-0.731,0.401-1.443,0.26-2.537C92.741,26.457,92.223,27.086,91.404,27.424z M102.116,36.307
		c2.036,4.781,6.392,8.822,12.133,9.896c6.319,1.185,11.836-1.472,14.712-4.061c3.424-3.08,5.484-7.495,5.421-12.561
		c-0.108-8.85-7.51-16.32-17.035-16.24c-7.735,0.066-13.612,5.275-15.616,10.785c-0.838,2.302-1.091,5.092-0.774,7.865
		C101.165,33.833,101.563,35.007,102.116,36.307z"/>
	<path fill="#FFFFFF" d="M13.064,11.947c0.715,1.228,1.494,2.441,2.323,3.808c0.242,0.397,0.63,1.002,0.645,1.268
		c0.035,0.606-0.431,0.823-0.645,1.397c-0.337,0.897-0.321,1.751-0.389,2.79c-1.846,0.935-3.399,2.153-5.42,2.919
		c-1.34-2.941-0.723-6.305,0.646-8.881C10.95,13.879,11.767,12.415,13.064,11.947z"/>
	<path fill="#FFFFFF" d="M16.936,24.507c1.188,0.522,2.215,1.206,4.13,1.015c1.063,1.703,1.997,3.535,3.098,5.202
		c-4.507,2.404-10.354-0.227-12.519-3.044c0-0.086,0-0.17,0-0.256C13.506,26.549,15.13,25.44,16.936,24.507z"/>
	<path fill="#FFFFFF" d="M28.939,13.342c-1.833,0.905-3.466,2.007-5.292,2.919c-1.203-0.511-2.26-1.162-4.13-1.015
		c-1.104-1.623-1.951-3.496-3.099-5.077c-0.036-0.203,0.122-0.217,0.129-0.38c2.827-1.231,6.744-0.522,9.164,0.763
		C27.073,11.274,28.449,12.167,28.939,13.342z"/>
	<path fill="#FFFFFF" d="M19.517,22.223c-2.672-1.547-0.12-4.701,1.937-3.425C22.906,19.699,22.263,22.875,19.517,22.223z"/>
	<path fill="#FFFFFF" d="M25.454,19.685c1.883-1.023,3.53-2.28,5.679-3.044c1.493,4.929-0.314,10.227-3.483,12.181
		c-1.297-1.348-1.906-3.37-3.099-4.82C24.754,22.466,25.769,21.729,25.454,19.685z"/>
	<path fill="#FFFFFF" d="M46.749,35.799c2.045,0.146,3.752,0.626,5.162,1.396c0.341,4.646,2.168,8.302,5.162,10.911
		c0.811,0.705,2.193,1.349,2.323,2.155c0.098,0.604-0.396,1.793-0.646,2.665c-0.261,0.919-0.384,1.949-1.033,2.157
		c-1.341,0.428-3.703-1.859-4.646-2.664c-2.671-2.278-4.667-4.999-5.937-8.627c-0.626-1.786-1.259-4.104-1.16-6.091
		C46.01,36.967,46.304,36.155,46.749,35.799z"/>
	<path fill="#FFFFFF" d="M67.915,17.911c0.245,1.813-0.662,3.57-1.161,5.074c-4.747,0.567-8.456,1.957-11.229,5.074
		c-0.745,0.836-1.292,2.112-2.064,2.283c-0.828,0.184-4.682-0.904-5.035-1.521c-0.042-0.377-0.132-0.18,0-0.508
		c1.854-4.557,7.098-8.941,13.036-10.402C63.445,17.422,65.975,16.74,67.915,17.911z"/>
	<path fill="#FFFFFF" d="M59.655,38.591c-0.435-2.474,0.396-4.602,1.678-5.964c0.559-0.592,3.167-2.105,4.904-2.156
		c5.578-0.162,8.859,5.767,6.324,10.278c-1.128,2.005-3.698,3.765-6.971,3.425c-2.314-0.24-4.143-1.701-5.032-3.044
		C60.271,40.694,59.837,39.623,59.655,38.591z"/>
	<path fill="#FFFFFF" d="M66.237,51.659c4.423-0.334,8.197-1.998,10.713-4.568c0.776-0.794,1.479-2.596,2.58-2.791
		c0.691-0.122,1.913,0.381,2.84,0.636c0.932,0.253,1.847,0.46,2.193,1.142c-1.017,2.646-2.938,5.027-5.162,6.851
		c-0.826,0.677-1.938,1.173-3.099,1.776c-1.045,0.545-2.006,1.275-3.098,1.648c-1.105,0.38-2.572,0.702-3.871,0.89
		c-1.357,0.193-2.93,0.343-4.26-0.256C64.538,55.252,65.634,53.1,66.237,51.659z"/>
	<path fill="#FFFFFF" d="M81.08,37.702c-0.656-4.684-1.85-7.837-4.518-10.404c-0.846-0.813-1.884-1.376-2.711-2.283
		c-0.69-1.017,0.638-5.26,1.42-5.457c1.057-0.265,4.252,2.329,5.034,3.046c1.295,1.189,2.822,3.054,3.612,4.313
		c0.948,1.514,1.716,3.393,2.323,5.709c0.457,1.746,1.272,5.864-0.258,6.344c-0.676,0.213-1.825-0.304-2.582-0.507
		C82.525,38.228,81.789,37.965,81.08,37.702z"/>
	<path fill="#FFFFFF" d="M93.599,26.157c0.143,1.094-0.436,1.806-0.26,2.537c0.361,1.504,2.777,1.358,4.261,1.902
		c0.19,1.504,0.358,3.031,0.646,4.441c-0.792,0.58-3.295,1.389-3.484,2.664c-0.158,1.063,0.936,1.669,1.031,2.918
		c-0.78-0.374-1.79-0.523-2.582-0.889c0-1.057,0-2.113,0-3.171c1.554-0.506,3.438-0.684,4.262-1.904
		c-0.072-1.239-0.307-2.321-0.518-3.427c-1.011-0.887-2.855-0.653-4.518-0.634c-0.356-1.044-0.766-2.04-1.032-3.173
		C92.223,27.086,92.741,26.457,93.599,26.157z"/>
	<path fill="#FFFFFF" d="M100.955,31.993c-0.315-2.773-0.063-5.563,0.774-7.865c2.004-5.51,7.881-10.719,15.616-10.785
		c9.525-0.08,16.927,7.392,17.035,16.24c0.063,5.065-1.997,9.48-5.421,12.561c-2.876,2.589-8.393,5.244-14.712,4.061
		c-5.741-1.074-10.097-5.115-12.133-9.896C101.563,35.007,101.165,33.833,100.955,31.993z M104.053,39.099
		c0.986,1.395,2.538,2.808,3.742,3.679c2.203,1.599,5.45,3.047,9.162,3.173c7.911,0.269,14.38-4.634,16.393-11.927
		c0.65-2.359,0.769-4.371,0.388-6.725c-1.034-6.377-6.181-11.67-12.262-13.066c-6.185-1.422-11.767,1.004-14.972,3.933
		c-3.084,2.816-5.305,6.878-5.162,12.307C101.433,33.934,102.867,37.426,104.053,39.099z"/>
	<path d="M101.343,30.47c-0.143-5.429,2.078-9.489,5.162-12.307c3.205-2.929,8.787-5.354,14.972-3.933
		c6.081,1.396,11.228,6.689,12.262,13.066c0.381,2.354,0.264,4.364-0.388,6.725c-2.013,7.293-8.48,12.195-16.393,11.927
		c-3.712-0.127-6.959-1.574-9.162-3.173c-1.204-0.872-2.756-2.284-3.742-3.679C102.867,37.426,101.433,33.934,101.343,30.47z
		 M108.698,30.088c0.174-3.788-5.98-3.342-5.033,0.509C104.338,33.333,108.574,32.83,108.698,30.088z M112.055,38.084
		c0.203-3.635-5.87-3.445-5.033,0.38C107.675,41.454,111.906,40.703,112.055,38.084z M109.73,24.507
		c3.543-0.28,2.695-5.89-1.032-5.074c-1.13,0.246-1.937,1.733-1.677,3.045C107.287,23.829,108.039,24.642,109.73,24.507z
		 M113.731,35.038c4.674,3.379,11.947-1.243,9.938-7.232c-0.559-1.661-2.664-3.962-5.551-4.187
		c-4.318-0.335-7.023,3.131-6.841,6.597C111.401,32.511,112.407,34.081,113.731,35.038z M120.185,41.255
		c0.011-1.121-0.847-2.712-2.71-2.664c-1.771,0.044-2.672,1.838-2.322,3.299C115.813,44.657,120.157,44.148,120.185,41.255z
		 M120.185,18.543c-0.048-1.253-1.163-2.264-1.808-2.409c-3.921-0.9-4.997,5.733,0.129,4.947
		C119.406,20.427,120.237,19.883,120.185,18.543z M128.316,37.829c-0.049-2.094-2.581-3.203-4.259-2.03
		c-1.679,1.173-1.118,3.815,0.773,4.568C127.065,40.618,128.354,39.501,128.316,37.829z M125.605,24.507
		c3.862,0.041,3.319-5.941-0.646-5.074c-1.055,0.23-1.951,1.658-1.806,2.79C123.333,23.62,124.109,24.491,125.605,24.507z
		 M131.543,29.075c-0.498-2.151-4.521-2.113-5.033,0c0.083,0.51-0.168,1.349,0.129,1.648
		C127.332,33.455,132.418,32.769,131.543,29.075z"/>
	<path fill="#FFFFFF" d="M103.665,30.597c-0.947-3.851,5.207-4.297,5.033-0.509C108.574,32.83,104.338,33.333,103.665,30.597z"/>
	<path fill="#FFFFFF" d="M107.021,38.464c-0.837-3.825,5.236-4.015,5.033-0.38C111.906,40.703,107.675,41.454,107.021,38.464z"/>
	<path fill="#FFFFFF" d="M107.021,22.478c-0.26-1.312,0.547-2.799,1.677-3.045c3.729-0.814,4.575,4.794,1.032,5.074
		C108.039,24.642,107.287,23.829,107.021,22.478z"/>
	<path fill="#FFFFFF" d="M111.279,30.216c-0.184-3.466,2.521-6.932,6.841-6.597c2.887,0.225,4.992,2.524,5.551,4.187
		c2.009,5.989-5.266,10.611-9.938,7.232C112.407,34.081,111.401,32.511,111.279,30.216z"/>
	<path fill="#FFFFFF" d="M115.152,41.89c-0.351-1.461,0.552-3.255,2.322-3.299c1.863-0.048,2.721,1.543,2.71,2.664
		C120.157,44.148,115.813,44.657,115.152,41.89z"/>
	<path fill="#FFFFFF" d="M118.507,21.082c-5.126,0.786-4.05-5.849-0.129-4.947c0.645,0.146,1.76,1.156,1.808,2.409
		C120.237,19.883,119.406,20.427,118.507,21.082z"/>
	<path fill="#FFFFFF" d="M124.832,40.367c-1.893-0.753-2.452-3.396-0.773-4.568c1.678-1.172,4.21-0.063,4.259,2.03
		C128.354,39.501,127.065,40.618,124.832,40.367z"/>
	<path fill="#FFFFFF" d="M123.154,22.223c-0.146-1.132,0.751-2.56,1.806-2.79c3.966-0.867,4.509,5.115,0.646,5.074
		C124.109,24.491,123.333,23.62,123.154,22.223z"/>
	<path fill="#FFFFFF" d="M126.638,30.724c-0.297-0.301-0.046-1.14-0.129-1.648c0.513-2.113,4.535-2.151,5.033,0
		C132.418,32.769,127.332,33.455,126.638,30.724z"/>
</g>
</svg>
