<?xml version="1.0" encoding="utf-8"?>
<!-- Generator: Adobe Illustrator 15.0.0, SVG Export Plug-In . SVG Version: 6.00 Build 0)  -->
<!DOCTYPE svg PUBLIC "-//W3C//DTD SVG 1.1//EN" "http://www.w3.org/Graphics/SVG/1.1/DTD/svg11.dtd">
<svg version="1.1" id="Ebene_1" xmlns="http://www.w3.org/2000/svg" xmlns:xlink="http://www.w3.org/1999/xlink" x="0px" y="0px"
	 width="141.732px" height="90.709px" viewBox="0 -11.338 141.732 90.709" enable-background="new 0 -11.338 141.732 90.709"
	 xml:space="preserve">
<g>
	<g>
		<path fill="#FFFFFF" d="M66.82,56.411c-1.112,0-2.157-0.078-3.107-0.232c-0.607-1.195-0.864-2.445-0.805-3.92l0.008-0.201
			l-0.188-0.074c-0.492-0.189-1.063-0.297-1.615-0.398c-0.515-0.098-1.048-0.195-1.485-0.361l-0.165-0.063l-0.129,0.121
			c-0.329,0.309-0.625,0.852-0.938,1.428c-0.495,0.908-1.057,1.938-1.752,2.049c-0.046,0.008-0.097,0.012-0.147,0.012
			c-0.913,0-2.566-0.953-3.145-1.502c-0.055-1.393,0.25-2.414,0.569-3.494l0.111-0.375l-0.089-0.113
			c-0.404-0.521-0.987-0.836-1.551-1.143c-0.395-0.213-0.767-0.414-1.071-0.676l-0.106-0.092l-0.138,0.029
			c-0.63,0.135-1.127,0.631-1.607,1.107c-0.581,0.578-1.181,1.176-2.021,1.176c0,0-0.106-0.002-0.161-0.006
			c-0.358-0.047-2.452-1.564-2.585-2.188c-0.19-0.891,0.454-1.682,1.077-2.445c0.326-0.398,0.634-0.775,0.834-1.174l0.063-0.125
			l-0.063-0.127c-0.4-0.82-0.979-1.461-1.537-2.08c-0.19-0.213-0.382-0.424-0.564-0.643l-0.135-0.16c0,0-0.543,0.234-0.728,0.316
			c-0.859,0.385-1.833,0.82-2.83,0.82c-0.199,0-0.399-0.018-0.601-0.057c-0.333-0.188-0.682-0.742-0.968-1.258l-0.095-0.168
			c-0.229-0.406-0.656-1.162-0.645-1.461c0.039-1.002,1.994-2.08,2.935-2.598l0.324-0.18l-0.036-0.199
			c-0.152-0.855-0.423-1.596-0.686-2.314c-0.122-0.337-0.245-0.674-0.356-1.022l-0.076-0.236l-0.245,0.044
			c-0.468,0.086-0.996,0.131-1.525,0.131c-1.002,0-1.95-0.161-2.571-0.435l-0.041-0.156c-0.258-0.979-0.613-2.32-0.437-3.27
			c0.394-0.627,1.347-0.884,2.355-1.154c0.554-0.149,1.127-0.305,1.62-0.545l0.159-0.077v-3.401l-0.162-0.076
			c-0.44-0.211-0.923-0.377-1.391-0.541c-0.97-0.337-1.889-0.656-2.435-1.313c0.037-0.253,0.068-0.512,0.1-0.771
			c0.153-1.262,0.297-2.453,1.055-2.978l0.656-0.456l-0.798-0.06c-0.446-0.033-0.814-0.145-1.206-0.262
			c-0.309-0.093-0.618-0.186-0.964-0.242L34.648,16.8l-0.103,0.1c-0.526,0.513-0.967,1.112-1.393,1.691
			c-0.408,0.556-0.831,1.13-1.318,1.608l-0.123,0.12l0.05,0.164c0.157,0.528,0.474,0.997,0.78,1.451
			c0.517,0.765,1.003,1.488,0.767,2.46c-0.112,0.459-2.179,2.062-2.827,2.069c-0.75,0-1.486-0.887-2.135-1.67
			c-0.417-0.5-0.811-0.975-1.198-1.209l-0.112-0.066l-0.124,0.041c-0.312,0.104-0.617,0.213-0.922,0.323
			c-0.969,0.349-1.884,0.679-3.023,0.807l-0.228,0.024l-0.019,0.229c-0.159,1.624-0.32,3.271-1.126,4.18
			c-0.147-0.004-0.299-0.008-0.451-0.008c-0.275,0-0.558,0.008-0.839,0.016c-0.277,0.007-0.556,0.014-0.825,0.014
			c-0.591,0-1.015-0.035-1.352-0.111c-0.536-0.675-0.664-1.838-0.788-2.963c-0.036-0.342-0.074-0.682-0.123-1.013l-0.018-0.124
			l-0.104-0.07c-0.606-0.406-1.376-0.64-2.12-0.863c-0.621-0.188-1.263-0.381-1.771-0.67l-0.124-0.069l-0.13,0.057
			c-0.492,0.214-0.846,0.651-1.222,1.115c-0.275,0.339-0.56,0.688-0.901,0.946c-0.448,0.342-1.104,0.705-1.37,0.705
			c-0.31-0.004-0.689-0.354-1.025-0.662c-0.168-0.153-0.333-0.305-0.491-0.422c-0.148-0.11-0.318-0.211-0.489-0.31
			c-0.384-0.223-0.747-0.435-0.823-0.792c-0.182-0.863,0.504-1.86,1.056-2.661c0.239-0.348,0.466-0.677,0.603-0.965l0.061-0.127
			l-0.065-0.125c-0.4-0.772-0.898-1.453-1.38-2.112c-0.37-0.506-0.752-1.029-1.081-1.582L5.7,16.118l-0.224,0.087
			c-0.803,0.312-1.877,0.498-2.876,0.498c-0.438,0-0.848-0.036-1.223-0.105c-0.556-1.082-0.91-2.328-1.074-2.988
			c-0.239-0.961,1.777-1.723,2.982-2.179c0.274-0.104,0.523-0.198,0.726-0.284l0.175-0.074l-0.002-0.189
			C4.18,10.521,4.169,10.183,4.16,9.857C4.129,8.819,4.101,7.92,4.307,6.882L4.34,6.717L4.212,6.608
			C3.764,6.233,3.196,5.971,2.648,5.718c-0.487-0.225-0.99-0.458-1.419-0.77c-0.602-0.435-0.666-0.6-0.671-0.617
			C0.32,3.576,0.725,2.792,1.153,1.962c0.188-0.365,0.383-0.741,0.515-1.115C1.972,0.78,2.291,0.747,2.639,0.747
			c0.819,0,1.656,0.191,2.396,0.359c0.258,0.059,0.508,0.116,0.747,0.163l0.149,0.029l0.106-0.109
			c0.726-0.735,1.34-1.588,1.936-2.412c0.222-0.307,0.442-0.614,0.67-0.915l0.082-0.108L8.694-2.378
			c-0.125-0.495-0.33-0.854-0.546-1.235C8.024-3.832,7.895-4.059,7.774-4.328C7.722-4.443,7.657-4.571,7.589-4.707
			C7.354-5.17,7.062-5.749,7.148-6.188C7.24-6.659,9.26-8.241,10.091-8.241c0.895,0.006,1.669,0.959,2.354,1.801
			c0.288,0.354,0.559,0.688,0.818,0.919l0.118,0.106l0.152-0.046c0.357-0.108,0.707-0.223,1.057-0.338
			c0.947-0.312,1.928-0.633,3.034-0.797l0.224-0.033l0.018-0.225c0.144-1.827,0.441-3.129,0.933-4.078
			c0.506-0.079,1.144-0.122,1.817-0.122c0.677,0,1.318,0.043,1.823,0.123c0.618,1.082,0.878,2.364,0.798,3.914l-0.009,0.175
			l0.152,0.086c0.639,0.36,1.397,0.597,2.132,0.826c0.649,0.203,1.32,0.412,1.879,0.701l0.126,0.066l0.128-0.063
			c0.605-0.297,1.05-0.822,1.479-1.329c0.558-0.659,1.083-1.28,1.89-1.306h0.001c0.784,0,1.389,0.588,2.028,1.211
			c0.288,0.28,0.583,0.568,0.898,0.803c-0.061,1.17-0.532,1.927-1.031,2.727c-0.216,0.346-0.431,0.691-0.614,1.069l-0.063,0.133
			l0.073,0.129c0.436,0.777,0.956,1.479,1.459,2.158c0.342,0.462,0.685,0.924,1.002,1.41l0.118,0.181l0.205-0.065
			c0.456-0.145,1.648-0.483,2.867-0.483c0.501,0,0.941,0.058,1.313,0.172c0.102,0.533,0.332,1.023,0.554,1.499
			c0.297,0.634,0.578,1.232,0.453,1.778c-0.18,0.793-1.812,1.384-2.89,1.775c-0.308,0.111-0.589,0.213-0.815,0.309l-0.173,0.073
			l0.003,0.87c0.007,1.189,0.014,2.419-0.129,3.468l-0.023,0.171l0.143,0.099c0.336,0.236,0.831,0.458,1.354,0.693
			c1.024,0.46,2.299,1.032,2.397,1.776c0.06,0.451-0.333,1.233-0.682,1.924c-0.255,0.508-0.497,0.988-0.603,1.395l-0.054,0.208
			l0.186,0.108c0.353,0.204,0.829,0.295,1.546,0.295l0.424-0.007l0.082-0.117c0.319-0.457,0.529-1.007,0.731-1.54
			c0.175-0.459,0.34-0.894,0.567-1.266l0.104-0.169l-0.124-0.155c-0.386-0.485-0.867-0.87-1.332-1.241
			c-0.685-0.547-1.333-1.065-1.677-1.871l0.059-0.123c0.54-1.126,1.05-2.191,1.919-2.901c1.166,0.054,1.988,0.433,2.856,0.833
			c0.311,0.143,0.621,0.286,0.947,0.414l0.138,0.054l0.123-0.082c0.973-0.649,1.655-1.585,2.271-2.488l0.08-0.117l-0.045-0.134
			C47.487,6.6,47.158,6.132,46.841,5.68c-0.486-0.694-0.947-1.349-0.844-2.114c0.063-0.449,0.717-0.966,1.15-1.309l0.231-0.187
			c0.379-0.309,0.952-0.775,1.322-0.796c0.001,0,0.002,0,0.004,0c0.899,0,1.587,0.727,2.253,1.43
			c0.405,0.428,0.788,0.832,1.198,1.069l0.128,0.074l0.134-0.063C53.29,3.377,54.2,2.89,55.282,2.248l0.171-0.101l-0.148-0.756
			c-0.247-1.22-0.501-2.479-0.193-3.606c0.271-0.094,0.538-0.191,0.806-0.289c0.788-0.288,1.603-0.585,2.504-0.77
			c0.981,0.796,1.678,1.928,2.125,3.456l0.062,0.207l0.215-0.003c0.732-0.01,1.377-0.11,2.001-0.207
			c0.446-0.069,0.893-0.139,1.372-0.175l0.221-0.017c0,0,0.123-0.746,0.164-1.012c0.183-1.185,0.369-2.409,0.926-3.194
			c0.353-0.092,0.775-0.138,1.29-0.138c0.632,0,1.31,0.067,1.963,0.132l0.297,0.029c0.601,0.842,0.896,2.125,0.9,3.917v0.163
			l0.143,0.082c0.662,0.381,1.55,0.515,2.408,0.644c0.307,0.046,0.611,0.092,0.906,0.149l0.147,0.028l0.105-0.105
			c0.302-0.301,0.556-0.813,0.821-1.354c0.428-0.867,0.913-1.85,1.617-1.995c0.098-0.021,0.198-0.031,0.3-0.031
			c0.572,0,1.146,0.315,1.755,0.648c0.404,0.222,0.821,0.45,1.262,0.597c0.306,1.427-0.243,3.007-0.544,3.871L78.83,2.551
			l0.079,0.118c0.399,0.599,1.033,0.934,1.646,1.258c0.41,0.218,0.8,0.424,1.109,0.7l0.142,0.125l0.169-0.08
			c0.438-0.208,0.763-0.529,1.077-0.841c0.198-0.198,0.403-0.402,0.648-0.585l0.183-0.139c0.455-0.346,1.077-0.82,1.552-0.82
			c0.433,0.014,0.822,0.396,1.201,0.765c0.105,0.104,0.213,0.208,0.318,0.305c0.095,0.085,0.209,0.178,0.331,0.277
			c0.344,0.279,0.815,0.661,0.871,0.959c0.167,0.902-0.417,1.609-1.035,2.357c-0.354,0.429-0.688,0.833-0.883,1.284l-0.06,0.137
			l0.079,0.126c0.561,0.886,1.248,1.732,2.105,2.587l0.123,0.123l0.166-0.055c0.328-0.108,0.64-0.232,0.95-0.356
			c0.851-0.338,1.651-0.658,2.795-0.658c0.086,0,0.174,0.002,0.264,0.006c0.146,0.226,0.299,0.444,0.452,0.662
			c0.59,0.836,1.146,1.627,1.233,2.889l0.021,0.321l0.316-0.063c0.677-0.135,1.313-0.198,2.003-0.198
			c0.426,0,0.883,0.024,1.396,0.075l0.175,0.017l0.093-0.147c0.383-0.604,0.64-1.325,0.888-2.021
			c0.256-0.718,0.521-1.459,0.913-2.03l0.081-0.118l-0.047-0.135c-0.18-0.521-0.736-0.969-1.326-1.443
			c-0.73-0.587-1.486-1.195-1.497-1.895c-0.007-0.498,1.529-2.639,2.102-2.764c0.087-0.019,0.18-0.028,0.275-0.028
			c0.869,0,2.004,0.748,2.755,1.243c0.249,0.164,0.468,0.308,0.643,0.405l0.143,0.08l0.142-0.083
			c0.714-0.425,1.339-0.942,1.942-1.442c0.567-0.469,1.155-0.955,1.803-1.35l0.177-0.107l-0.048-0.2
			c-0.104-0.446-0.278-0.901-0.446-1.342c-0.373-0.976-0.727-1.898-0.351-2.654c0.174-0.35,2.171-1.371,3.001-1.371
			c0.967,0.109,1.411,1.044,1.884,2.034c0.212,0.445,0.432,0.904,0.695,1.278l0.104,0.146l0.339-0.059
			c1.379-0.238,2.805-0.485,4.328-0.603l0.183-0.014l0.063-0.172c0.16-0.443,0.276-0.93,0.391-1.401
			c0.257-1.074,0.5-2.09,1.22-2.591c0.306,0.03,0.62,0.048,0.938,0.066c0.904,0.051,1.842,0.104,2.382,0.466
			c0.433,0.934,0.57,2.49,0.333,3.82l-0.035,0.197l0.174,0.099c0.572,0.326,1.244,0.549,1.895,0.765
			c0.797,0.264,1.619,0.537,2.203,0.991l0.16,0.126l0.171-0.114c0.524-0.351,0.952-0.793,1.365-1.22
			c0.589-0.609,1.146-1.186,1.96-1.505c1.252,0.488,2.155,1.292,2.813,1.966c-0.05,1.489-0.695,2.378-1.379,3.318l-0.362,0.504
			l0.12,0.165c0.381,0.521,0.788,1.015,1.195,1.509c0.563,0.683,1.146,1.39,1.635,2.155l0.115,0.179l0.204-0.06
			c0.244-0.072,0.514-0.167,0.798-0.268c0.763-0.269,1.626-0.574,2.423-0.574c0.367,0,0.684,0.064,0.968,0.194
			c0.304,0.183,0.518,0.68,0.705,1.118l0.105,0.244c0.222,0.506,0.495,1.137,0.445,1.515c-0.11,0.842-0.975,1.259-1.889,1.699
			c-0.553,0.267-1.124,0.542-1.514,0.927l-0.115,0.114l0.04,0.157c0.36,1.421,0.569,2.813,0.638,4.257l0.01,0.208l0.201,0.053
			c0.331,0.087,0.674,0.164,1.018,0.241c1.115,0.25,2.271,0.508,2.937,1.16c0.162,0.524,0.065,1.1-0.036,1.708
			c-0.078,0.466-0.159,0.947-0.136,1.45c-0.518,0.444-1.539,0.715-2.717,0.715c-0.451,0-0.91-0.041-1.327-0.119l-0.177-0.032
			l-0.105,0.146c-0.466,0.647-0.755,1.459-1.034,2.242c-0.228,0.639-0.463,1.301-0.787,1.837l-0.06,0.101l0.027,0.113
			c0.138,0.559,0.702,1.037,1.302,1.543c0.68,0.574,1.383,1.17,1.4,1.823c0.012,0.423-1.387,2.608-1.98,2.765
			c-0.12,0.03-0.249,0.047-0.381,0.047c-0.811,0-1.665-0.57-2.42-1.073c-0.367-0.245-0.715-0.478-1.018-0.608l-0.146-0.064
			l-0.131,0.095c-0.481,0.347-0.938,0.717-1.393,1.087c-0.728,0.594-1.479,1.206-2.327,1.688l-0.229,0.131l0.115,0.238
			c0.428,0.889,0.908,2.127,0.879,3.889c-0.271,0.148-0.551,0.326-0.835,0.508c-0.708,0.453-1.44,0.922-2.14,0.922
			c-0.063,0-0.129-0.004-0.192-0.014c-0.795-0.104-1.354-1.191-1.85-2.148c-0.228-0.441-0.442-0.859-0.673-1.166l-0.104-0.139
			l-0.171,0.031c-0.328,0.059-0.65,0.121-0.975,0.186c-1.048,0.205-2.132,0.416-3.371,0.443l-0.176,0.004l-0.075,0.158
			c-0.236,0.504-0.386,1.09-0.528,1.656c-0.246,0.975-0.479,1.895-1.116,2.371c-0.081,0.002-0.16,0.004-0.238,0.004
			c-0.792,0-1.455-0.113-2.158-0.234c-0.28-0.049-0.563-0.096-0.852-0.137c-0.532-0.635-0.52-1.918-0.505-3.16
			c0.003-0.299,0.006-0.6,0.002-0.891l-0.002-0.164l-0.146-0.08c-0.569-0.313-1.228-0.535-1.862-0.752
			c-0.801-0.273-1.629-0.557-2.233-1.004l-0.145-0.105l-0.156,0.082c-0.405,0.213-0.816,0.682-1.252,1.18
			c-0.646,0.736-1.378,1.572-2.104,1.58c-0.362,0-0.736-0.32-1.099-0.629c-0.139-0.117-0.273-0.232-0.407-0.33
			c-0.104-0.078-0.236-0.162-0.378-0.25c-0.365-0.229-0.865-0.543-0.934-0.852c-0.182-0.82,0.365-1.6,0.894-2.352
			c0.295-0.419,0.6-0.854,0.771-1.291l0.059-0.146l-0.093-0.125c-0.938-1.272-1.926-2.467-2.853-3.567l-0.105-0.126l-0.161,0.029
			c-0.465,0.086-0.88,0.219-1.282,0.348c-0.66,0.212-1.285,0.412-2.122,0.412l-0.563-0.014l0.137,0.389
			c0.42,1.197-0.004,3.104-0.672,4.089c-0.458,0.081-1.068,0.125-1.736,0.125c-0.743,0-1.492-0.054-2.054-0.147l-0.143-0.022
			l-0.103,0.1c-0.474,0.46-0.706,1.119-0.932,1.757c-0.157,0.447-0.308,0.867-0.527,1.211l-0.12,0.188l0.152,0.16
			c0.365,0.389,0.781,0.729,1.185,1.055c0.715,0.582,1.394,1.133,1.808,1.938c-0.502,1.219-1.116,2.203-1.876,3.004l-0.077,0.002
			c-1.644,0-2.665-0.625-3.653-1.23l-0.148-0.092l-0.147,0.094c-0.954,0.59-1.617,1.455-2.259,2.295l-0.229,0.301l0.042,0.139
			c0.176,0.576,0.523,0.961,0.86,1.332c0.193,0.213,0.379,0.418,0.524,0.652c-0.111,0.455,0.07,0.824,0.221,1.125
			c0.122,0.248,0.228,0.461,0.192,0.699c-0.08,0.545-2.197,2.262-2.833,2.295c-0.001,0-0.002,0-0.003,0
			c-0.428,0-0.789-0.309-1.172-0.635c-0.193-0.164-0.388-0.328-0.589-0.461c-0.563-0.371-1.047-0.811-1.621-1.473l-0.141-0.162
			l-0.193,0.092c-0.493,0.232-0.975,0.475-1.456,0.715c-0.458,0.23-0.916,0.461-1.384,0.684l-0.188,0.088l0.029,0.207
			c0.053,0.373,0.131,0.752,0.21,1.135c0.202,0.979,0.411,1.992,0.197,3.01c-0.231,0.252-0.579,0.35-0.979,0.459
			c-0.177,0.051-0.356,0.1-0.536,0.164c-0.197,0.072-0.406,0.174-0.617,0.273c-0.358,0.174-0.729,0.352-0.999,0.352
			c-1.004-0.117-1.391-1.094-1.8-2.125c-0.221-0.559-0.448-1.135-0.777-1.574l-0.099-0.131l-0.161,0.02
			c-0.706,0.084-1.374,0.203-2.042,0.324c-0.354,0.063-0.708,0.127-1.068,0.186l-0.191,0.031l-0.041,0.189
			c-0.071,0.338-0.133,0.688-0.192,1.035c-0.204,1.168-0.415,2.375-1.068,3.057C67.125,56.409,66.972,56.411,66.82,56.411z"/>
		<path d="M20.615-10.771c0.603,0,1.175,0.035,1.643,0.099c0.542,1.009,0.771,2.203,0.695,3.64l-0.019,0.351l0.306,0.172
			c0.665,0.375,1.438,0.616,2.186,0.85c0.667,0.208,1.299,0.405,1.833,0.683l0.255,0.131L27.77-4.97
			c0.659-0.323,1.123-0.871,1.57-1.401c0.538-0.635,1.002-1.184,1.719-1.207c0.625,0,1.188,0.55,1.788,1.132
			c0.257,0.25,0.521,0.507,0.802,0.731c-0.088,1.018-0.521,1.713-0.979,2.445c-0.214,0.344-0.437,0.7-0.628,1.095l-0.129,0.267
			l0.146,0.258c0.444,0.793,0.971,1.502,1.479,2.188c0.335,0.452,0.682,0.919,0.993,1.396l0.235,0.361l0.411-0.131
			c0.442-0.141,1.602-0.469,2.78-0.469c0.403,0,0.763,0.039,1.071,0.116c0.122,0.504,0.341,0.971,0.539,1.392
			c0.288,0.613,0.536,1.144,0.433,1.595c-0.146,0.643-1.751,1.224-2.71,1.571c-0.313,0.113-0.598,0.217-0.829,0.314l-0.347,0.146
			v0.377l0.003,0.682c0.007,1.18,0.014,2.399-0.126,3.428l-0.047,0.342l0.283,0.199c0.358,0.251,0.866,0.479,1.401,0.719
			c0.91,0.409,2.155,0.968,2.233,1.555c0.048,0.365-0.357,1.171-0.653,1.759c-0.262,0.522-0.51,1.015-0.624,1.451l-0.107,0.417
			l0.372,0.216c0.396,0.23,0.918,0.333,1.688,0.333c0.095,0,0.191-0.001,0.289-0.004l0.286-0.008l0.164-0.234
			c0.34-0.485,0.556-1.053,0.765-1.602c0.17-0.447,0.331-0.87,0.544-1.218l0.208-0.339l-0.247-0.311
			c-0.405-0.51-0.899-0.904-1.377-1.286c-0.621-0.496-1.211-0.967-1.541-1.646l0.001-0.003c0.509-1.059,0.989-2.063,1.761-2.734
			c1.055,0.069,1.826,0.425,2.641,0.801c0.315,0.145,0.631,0.29,0.962,0.42l0.275,0.108l0.247-0.164
			c1.015-0.678,1.716-1.639,2.347-2.564l0.16-0.234l-0.091-0.268c-0.188-0.554-0.528-1.038-0.857-1.506
			C46.6,4.84,46.19,4.257,46.279,3.602c0.046-0.336,0.696-0.85,1.083-1.156l0.197-0.159c0.308-0.251,0.881-0.717,1.158-0.733
			l0.063-0.001c0.701,0,1.348,0.683,1.973,1.344c0.419,0.443,0.816,0.861,1.263,1.12l0.255,0.148l0.268-0.125
			c0.88-0.41,1.798-0.902,2.889-1.548l0.342-0.203l-0.074-0.391c-0.036-0.185-0.074-0.373-0.112-0.563
			c-0.229-1.134-0.466-2.303-0.232-3.333c0.223-0.079,0.443-0.16,0.665-0.24c0.772-0.282,1.507-0.551,2.331-0.73
			c0.881,0.754,1.514,1.814,1.929,3.23l0.121,0.414l0.431-0.006c0.752-0.011,1.407-0.112,2.04-0.21
			c0.455-0.071,0.885-0.137,1.35-0.172l0.441-0.034l0.075-0.437c0.045-0.263,0.086-0.531,0.127-0.798
			c0.17-1.109,0.345-2.252,0.82-2.988c0.308-0.07,0.675-0.104,1.115-0.104c0.617,0,1.287,0.066,1.936,0.13l0.165,0.016
			c0.518,0.794,0.771,1.992,0.776,3.649l0.001,0.327l0.283,0.163c0.708,0.408,1.623,0.545,2.507,0.679
			c0.304,0.046,0.604,0.091,0.896,0.147l0.294,0.057l0.213-0.212c0.336-0.333,0.599-0.866,0.877-1.429
			c0.379-0.769,0.853-1.726,1.419-1.843c0.08-0.017,0.16-0.024,0.243-0.024c0.5,0,1.043,0.298,1.618,0.613
			c0.368,0.202,0.747,0.409,1.149,0.561c0.22,1.31-0.283,2.76-0.563,3.564l-0.093,0.267l0.155,0.234
			c0.44,0.658,1.105,1.011,1.749,1.352c0.396,0.21,0.771,0.408,1.056,0.662l0.279,0.249l0.34-0.161
			c0.481-0.228,0.823-0.567,1.154-0.896c0.203-0.202,0.396-0.392,0.619-0.559l0.187-0.14c0.397-0.303,1.001-0.762,1.393-0.762l0,0
			c0.3,0.01,0.65,0.353,0.989,0.684c0.108,0.107,0.219,0.213,0.328,0.313c0.098,0.088,0.216,0.185,0.343,0.287
			c0.237,0.193,0.732,0.595,0.77,0.79c0.145,0.773-0.398,1.43-0.975,2.125c-0.351,0.425-0.714,0.865-0.925,1.352l-0.119,0.275
			l0.16,0.253c0.57,0.904,1.272,1.767,2.146,2.637l0.247,0.246l0.331-0.109c0.333-0.11,0.65-0.236,0.967-0.362
			c0.823-0.329,1.603-0.638,2.689-0.638c0.035,0,0.07,0,0.105,0.001c0.123,0.185,0.25,0.366,0.378,0.547
			c0.565,0.803,1.102,1.562,1.184,2.745l0.045,0.643l0.632-0.126c0.658-0.131,1.276-0.193,1.947-0.193
			c0.417,0,0.865,0.024,1.369,0.074l0.348,0.035l0.188-0.295c0.399-0.631,0.661-1.366,0.916-2.078
			c0.261-0.732,0.507-1.424,0.879-1.964l0.162-0.236l-0.094-0.271c-0.206-0.597-0.795-1.07-1.417-1.571
			c-0.647-0.521-1.382-1.112-1.392-1.656c0.064-0.483,1.406-2.35,1.878-2.504c0.066-0.014,0.139-0.021,0.216-0.021
			c0.784,0,1.877,0.72,2.601,1.196c0.255,0.168,0.479,0.315,0.657,0.416l0.286,0.16l0.281-0.168c0.731-0.436,1.366-0.96,1.979-1.467
			c0.586-0.485,1.141-0.942,1.771-1.327l0.351-0.213l-0.094-0.4c-0.108-0.464-0.286-0.929-0.458-1.378
			c-0.35-0.916-0.681-1.781-0.373-2.405c0.243-0.332,2.051-1.233,2.792-1.233c0,0,0.001,0,0.002,0
			c0.691,0.081,1.079,0.793,1.593,1.871c0.219,0.456,0.441,0.926,0.722,1.32l0.207,0.292l0.353-0.061l0.162-0.028
			c1.372-0.237,2.791-0.483,4.303-0.6l0.364-0.028l0.125-0.343c0.166-0.459,0.285-0.954,0.399-1.432
			c0.232-0.975,0.455-1.9,1.026-2.364c0.273,0.024,0.557,0.04,0.837,0.056c0.83,0.047,1.688,0.095,2.176,0.377
			c0.384,0.892,0.499,2.333,0.276,3.576l-0.072,0.391l0.348,0.198c0.597,0.34,1.282,0.567,1.945,0.787
			c0.809,0.269,1.572,0.522,2.116,0.946l0.323,0.251l0.341-0.228c0.55-0.368,0.988-0.821,1.411-1.259
			c0.541-0.559,1.055-1.09,1.759-1.396c0.879,0.36,1.67,0.917,2.521,1.771c-0.077,1.332-0.683,2.164-1.319,3.041l-0.245,0.34
			l-0.235,0.333l0.239,0.33c0.388,0.53,0.804,1.035,1.205,1.522c0.584,0.708,1.136,1.377,1.615,2.127l0.229,0.359l0.407-0.121
			c0.249-0.074,0.522-0.17,0.813-0.272c0.74-0.262,1.58-0.558,2.328-0.558c0.312,0,0.579,0.05,0.816,0.154
			c0.241,0.163,0.43,0.6,0.596,0.986l0.059,0.134l0.048,0.112c0.187,0.424,0.465,1.065,0.425,1.365
			c-0.084,0.643-0.739,1.003-1.729,1.481c-0.573,0.276-1.166,0.563-1.59,0.981l-0.231,0.229l0.08,0.314
			c0.357,1.402,0.563,2.776,0.63,4.2l0.021,0.416l0.401,0.106c0.335,0.088,0.682,0.166,1.026,0.243
			c1.096,0.245,2.133,0.478,2.747,1.036c0.114,0.442,0.031,0.94-0.064,1.509c-0.071,0.437-0.146,0.886-0.144,1.363
			c-0.491,0.353-1.391,0.566-2.429,0.566c-0.436,0-0.875-0.04-1.275-0.114l-0.354-0.066l-0.21,0.292
			c-0.49,0.68-0.785,1.51-1.071,2.312c-0.233,0.655-0.453,1.272-0.763,1.786l-0.121,0.201l0.056,0.227
			c0.159,0.648,0.76,1.154,1.395,1.691c0.604,0.51,1.286,1.088,1.302,1.597c-0.054,0.476-1.313,2.338-1.769,2.5
			c-0.099,0.024-0.203,0.038-0.312,0.038c-0.725,0-1.577-0.569-2.264-1.026c-0.378-0.252-0.734-0.489-1.06-0.632l-0.296-0.129
			l-0.262,0.188c-0.491,0.354-0.956,0.731-1.406,1.1c-0.751,0.611-1.461,1.189-2.287,1.661l-0.46,0.262l0.229,0.479
			c0.427,0.883,0.854,1.994,0.854,3.598c-0.237,0.137-0.475,0.287-0.706,0.436c-0.674,0.432-1.371,0.879-1.986,0.879
			c-0.052,0-0.104-0.006-0.155-0.012c-0.648-0.086-1.194-1.146-1.635-1.998c-0.232-0.455-0.454-0.883-0.698-1.207l-0.209-0.275
			l-0.344,0.061c-0.329,0.061-0.652,0.123-0.979,0.188c-1.084,0.211-2.107,0.412-3.322,0.438l-0.352,0.006l-0.149,0.318
			c-0.25,0.529-0.401,1.129-0.548,1.709c-0.224,0.885-0.437,1.723-0.944,2.158c-0.046,0.002-0.091,0.002-0.136,0.002
			c-0.768,0-1.42-0.111-2.109-0.23c-0.247-0.043-0.493-0.084-0.744-0.121c-0.401-0.584-0.391-1.758-0.378-2.895
			c0.004-0.301,0.007-0.604,0.003-0.896l-0.005-0.33l-0.291-0.158c-0.592-0.324-1.261-0.553-1.906-0.771
			c-0.815-0.277-1.586-0.541-2.157-0.963l-0.285-0.211l-0.315,0.164c-0.45,0.238-0.88,0.727-1.332,1.244
			c-0.577,0.658-1.296,1.477-1.899,1.482c-0.25,0-0.599-0.299-0.906-0.561c-0.144-0.123-0.284-0.242-0.423-0.344
			c-0.11-0.082-0.248-0.168-0.396-0.264c-0.248-0.154-0.766-0.479-0.808-0.672c-0.154-0.699,0.333-1.393,0.85-2.126
			c0.304-0.433,0.617-0.881,0.803-1.351l0.115-0.291l-0.188-0.252c-0.941-1.279-1.932-2.479-2.862-3.582l-0.212-0.252l-0.322,0.06
			c-0.483,0.088-0.907,0.226-1.317,0.354c-0.64,0.205-1.243,0.399-2.036,0.399l-0.143-0.002l-0.823-0.022l0.271,0.776
			c0.373,1.063,0.008,2.798-0.573,3.735c-0.427,0.064-0.973,0.102-1.566,0.102c-0.729,0-1.46-0.053-2.007-0.145l-0.283-0.047
			l-0.205,0.199c-0.521,0.506-0.766,1.198-1.002,1.866c-0.15,0.432-0.295,0.838-0.498,1.15l-0.241,0.375l0.307,0.322
			c0.379,0.4,0.803,0.746,1.212,1.078c0.655,0.533,1.278,1.041,1.673,1.732c-0.461,1.084-1.015,1.975-1.687,2.705
			c-1.536-0.01-2.472-0.582-3.46-1.188l-0.298-0.184l-0.296,0.186c-0.999,0.617-1.679,1.506-2.336,2.363l-0.14,0.184l-0.178,0.23
			l0.085,0.279c0.192,0.637,0.58,1.064,0.921,1.439c0.157,0.176,0.31,0.342,0.434,0.521c-0.078,0.494,0.117,0.891,0.269,1.193
			c0.116,0.234,0.188,0.389,0.169,0.518c-0.144,0.486-2.042,2.014-2.599,2.068c-0.282,0-0.604-0.275-0.948-0.568
			c-0.193-0.164-0.396-0.336-0.616-0.48c-0.539-0.355-1.006-0.781-1.563-1.422l-0.281-0.324l-0.389,0.184
			c-0.495,0.232-0.979,0.477-1.463,0.719c-0.456,0.229-0.911,0.457-1.377,0.678l-0.378,0.18l0.059,0.414
			c0.056,0.383,0.137,0.773,0.214,1.15c0.19,0.924,0.389,1.877,0.215,2.813c-0.169,0.146-0.424,0.225-0.792,0.326
			c-0.185,0.051-0.372,0.104-0.559,0.172c-0.216,0.078-0.434,0.184-0.645,0.283c-0.313,0.15-0.669,0.322-0.899,0.322
			c-0.001,0-0.002,0-0.002,0c-0.725-0.088-1.054-0.793-1.51-1.945c-0.229-0.574-0.463-1.17-0.814-1.641l-0.195-0.262l-0.327,0.041
			c-0.718,0.086-1.399,0.209-2.06,0.328c-0.353,0.063-0.705,0.127-1.063,0.184l-0.383,0.063l-0.081,0.381
			c-0.072,0.34-0.135,0.693-0.195,1.045c-0.188,1.076-0.381,2.189-0.917,2.824c-0.111,0.002-0.222,0.002-0.332,0.002
			c-1.042,0-2.022-0.07-2.918-0.207c-0.54-1.111-0.768-2.279-0.711-3.65l0.017-0.404l-0.377-0.146
			c-0.517-0.201-1.101-0.309-1.666-0.414c-0.525-0.098-1.022-0.189-1.437-0.348l-0.331-0.125l-0.258,0.242
			c-0.362,0.34-0.668,0.902-0.993,1.498c-0.44,0.811-0.989,1.816-1.549,1.906c-0.032,0.004-0.065,0.008-0.102,0.008
			c-0.738,0-2.24-0.805-2.865-1.348c-0.029-1.287,0.259-2.26,0.563-3.285l0.07-0.236l0.082-0.277l-0.179-0.229
			c-0.439-0.568-1.05-0.898-1.639-1.219c-0.38-0.205-0.739-0.398-1.021-0.641l-0.213-0.184l-0.274,0.059
			c-0.712,0.152-1.239,0.678-1.749,1.186c-0.564,0.563-1.098,1.094-1.82,1.094c-0.033,0-0.067-0.002-0.086-0.002
			c-0.007,0-0.012,0.002-0.015,0.002c-0.451-0.121-2.236-1.5-2.368-1.973c-0.162-0.756,0.412-1.459,1.02-2.205
			c0.321-0.393,0.653-0.801,0.868-1.225l0.127-0.252L46.874,43.5c-0.418-0.857-1.01-1.514-1.582-2.148
			c-0.188-0.209-0.377-0.416-0.559-0.633l-0.27-0.32l-0.385,0.162c-0.174,0.074-0.354,0.154-0.541,0.238
			c-0.833,0.373-1.776,0.795-2.714,0.795c-0.156,0-0.31-0.012-0.458-0.035c-0.365-0.236-0.71-0.857-0.862-1.133l-0.095-0.17
			c-0.166-0.293-0.604-1.072-0.608-1.309c0.033-0.844,2.034-1.947,2.788-2.361l0.147-0.082l0.354-0.195l-0.07-0.398
			c-0.157-0.879-0.433-1.633-0.698-2.36c-0.122-0.333-0.244-0.667-0.354-1.012l-0.15-0.477l-0.491,0.09
			c-0.451,0.082-0.961,0.125-1.475,0.125c-0.9,0-1.748-0.132-2.332-0.357l-0.006-0.021c-0.242-0.917-0.57-2.159-0.448-3.04
			c0.396-0.563,1.258-0.793,2.167-1.037c0.566-0.152,1.153-0.311,1.671-0.563l0.318-0.155V26.75v-3.047v-0.357l-0.323-0.154
			c-0.454-0.217-0.944-0.387-1.418-0.552c-0.883-0.307-1.722-0.598-2.229-1.136c0.029-0.213,0.057-0.43,0.082-0.646
			c0.139-1.144,0.282-2.327,0.935-2.779l1.313-0.912l-1.596-0.119c-0.416-0.031-0.771-0.138-1.146-0.251
			c-0.31-0.093-0.63-0.19-1.001-0.25L34.556,16.5L34.351,16.7c-0.543,0.53-0.991,1.138-1.423,1.727
			c-0.421,0.572-0.817,1.112-1.289,1.574l-0.244,0.239l0.098,0.328c0.17,0.569,0.499,1.057,0.817,1.528
			c0.501,0.743,0.934,1.384,0.73,2.217c-0.199,0.487-2.064,1.852-2.565,1.871c-0.607,0-1.329-0.869-1.908-1.566
			c-0.433-0.521-0.839-1.011-1.27-1.271l-0.224-0.136l-0.248,0.082c-0.313,0.104-0.622,0.215-0.929,0.326
			c-0.953,0.342-1.853,0.666-2.958,0.791l-0.459,0.082l-0.045,0.457c-0.146,1.489-0.296,3.026-0.971,3.889
			c-0.105-0.002-0.213-0.004-0.321-0.004c-0.278,0-0.563,0.008-0.848,0.016c-0.274,0.007-0.55,0.014-0.817,0.014
			c-0.512,0-0.889-0.025-1.188-0.084c-0.437-0.623-0.555-1.697-0.669-2.738c-0.038-0.344-0.076-0.688-0.124-1.021l-0.036-0.248
			l-0.208-0.141c-0.642-0.432-1.432-0.67-2.195-0.9c-0.635-0.191-1.232-0.372-1.711-0.645l-0.247-0.141l-0.261,0.114
			c-0.555,0.242-0.947,0.727-1.329,1.195c-0.264,0.326-0.536,0.662-0.854,0.902c-0.463,0.352-1.034,0.641-1.198,0.646
			c-0.198-0.003-0.581-0.354-0.834-0.589c-0.166-0.152-0.338-0.311-0.513-0.439c-0.167-0.125-0.344-0.229-0.516-0.326
			c-0.397-0.23-0.643-0.388-0.688-0.605c-0.157-0.744,0.491-1.685,1.012-2.441c0.246-0.358,0.479-0.696,0.625-1.005l0.12-0.254
			l-0.129-0.249c-0.411-0.792-0.915-1.481-1.403-2.148c-0.383-0.524-0.744-1.019-1.064-1.56l-0.245-0.414l-0.448,0.174
			c-0.76,0.295-1.822,0.479-2.772,0.479c-0.367,0-0.713-0.026-1.033-0.077c-0.507-1.026-0.833-2.179-0.988-2.802
			c-0.179-0.716,1.838-1.479,2.809-1.845c0.277-0.105,0.53-0.201,0.735-0.289l0.35-0.148l-0.005-0.379
			c-0.004-0.364-0.014-0.705-0.023-1.031C4.414,8.831,4.387,7.948,4.588,6.94l0.065-0.33L4.394,6.392
			C3.917,5.993,3.332,5.722,2.767,5.46C2.292,5.242,1.802,5.015,1.394,4.718C0.945,4.392,0.834,4.243,0.828,4.243c0,0,0,0,0,0.001
			C0.627,3.6,1.005,2.868,1.406,2.093c0.168-0.326,0.34-0.659,0.474-0.999C2.119,1.051,2.37,1.03,2.641,1.03
			c0.788,0,1.572,0.179,2.333,0.352c0.261,0.06,0.513,0.117,0.754,0.165l0.299,0.059l0.214-0.217
			c0.74-0.751,1.362-1.612,1.963-2.445c0.22-0.305,0.441-0.611,0.667-0.911l0.164-0.217L8.969-2.447
			C8.834-2.979,8.61-3.374,8.394-3.753C8.272-3.968,8.146-4.19,8.032-4.444c-0.054-0.12-0.12-0.25-0.19-0.39
			C7.627-5.259,7.359-5.79,7.421-6.114c0.183-0.486,2.046-1.844,2.671-1.844c0.758,0.005,1.521,0.943,2.133,1.696
			c0.295,0.363,0.572,0.705,0.85,0.952l0.237,0.212l0.304-0.092c0.359-0.108,0.711-0.224,1.063-0.34
			c0.979-0.322,1.903-0.625,2.986-0.785l0.447-0.066l0.036-0.45c0.134-1.706,0.401-2.938,0.837-3.841
			C19.451-10.736,20.018-10.771,20.615-10.771 M20.615-11.338c-0.722,0-1.444,0.049-2.001,0.148
			c-0.636,1.15-0.901,2.665-1.031,4.313c-1.534,0.227-2.78,0.735-4.131,1.144c-0.845-0.754-1.918-2.782-3.354-2.792
			c-0.001,0-0.003,0-0.006,0c-0.912,0-3.097,1.644-3.222,2.283c-0.131,0.673,0.398,1.48,0.646,2.03
			C7.843-3.482,8.233-3.047,8.42-2.31C7.577-1.192,6.812,0.001,5.838,0.99C4.892,0.803,3.775,0.462,2.64,0.462
			c-0.397,0-0.796,0.042-1.191,0.146C1.077,1.827-0.118,3.125,0.288,4.416C0.355,4.627,0.722,4.93,1.062,5.177
			C2.008,5.865,3.228,6.155,4.03,6.826c-0.277,1.396-0.146,2.518-0.129,4.06c-1.232,0.524-4.23,1.354-3.872,2.792
			c0.238,0.957,0.631,2.178,1.162,3.171c0.447,0.095,0.927,0.137,1.41,0.137c1.095,0,2.204-0.216,2.979-0.517
			c0.76,1.282,1.755,2.334,2.453,3.68c-0.438,0.931-1.969,2.428-1.679,3.807c0.141,0.664,0.911,0.89,1.42,1.27
			c0.517,0.384,1.092,1.133,1.678,1.141c0.003,0,0.005,0,0.008,0c0.423,0,1.215-0.515,1.541-0.762
			c0.831-0.628,1.293-1.691,2.065-2.029c1.145,0.651,2.799,0.803,3.871,1.522c0.221,1.519,0.215,3.257,1.033,4.187
			c0.436,0.114,0.958,0.144,1.509,0.144c0.545,0,1.119-0.027,1.665-0.027c0.193,0,0.384,0.003,0.567,0.013
			c0.956-0.963,1.121-2.703,1.291-4.44c1.543-0.173,2.714-0.716,4.002-1.142c0.944,0.57,2.088,2.918,3.472,2.918
			c0.004,0,0.008,0,0.013,0c0.751-0.008,2.948-1.668,3.099-2.285c0.418-1.713-1.147-2.714-1.551-4.059
			c1.013-0.992,1.695-2.31,2.711-3.299c0.776,0.126,1.355,0.444,2.194,0.507c-1.061,0.735-1.052,2.52-1.29,4.061
			c0.854,1.147,2.64,1.381,4.001,2.031c0,1.016,0,2.029,0,3.045c-1.35,0.66-3.385,0.647-4.13,1.902
			c-0.206,1.107,0.242,2.625,0.516,3.678c0.696,0.347,1.754,0.518,2.812,0.518c0.542,0,1.083-0.045,1.577-0.135
			c0.349,1.096,0.813,2.075,1.032,3.299c-0.994,0.551-3.18,1.697-3.227,2.916c-0.018,0.422,0.492,1.271,0.773,1.777
			c0.296,0.529,0.676,1.145,1.161,1.396c0.221,0.041,0.438,0.063,0.655,0.063c1.278,0,2.492-0.662,3.475-1.078
			c0.722,0.857,1.55,1.605,2.064,2.664c-0.579,1.145-2.26,2.297-1.937,3.807c0.161,0.748,2.368,2.371,2.84,2.41
			c0.063,0.006,0.125,0.008,0.185,0.008c1.69,0,2.422-2.02,3.688-2.291c0.779,0.672,1.947,0.961,2.582,1.777
			c-0.349,1.18-0.729,2.328-0.646,3.932c0.554,0.592,2.394,1.664,3.423,1.664c0.067,0,0.131-0.006,0.191-0.016
			c1.313-0.209,2.028-2.789,2.84-3.551c0.933,0.354,2.173,0.4,3.098,0.76c-0.07,1.762,0.313,3.076,0.902,4.188
			c1.009,0.174,2.108,0.262,3.293,0.262c0.19,0,0.383-0.002,0.579-0.008c0.993-0.928,1.085-2.74,1.42-4.313
			c1.034-0.168,2.021-0.381,3.098-0.508c0.901,1.203,1.026,3.604,2.71,3.807c0.03,0.004,0.063,0.006,0.095,0.006
			c0.506,0,1.157-0.438,1.714-0.641c0.631-0.23,1.283-0.268,1.679-0.762c0.344-1.504-0.194-2.945-0.389-4.313
			c0.959-0.453,1.877-0.945,2.839-1.396c0.533,0.615,1.038,1.102,1.679,1.523c0.623,0.41,1.168,1.145,1.877,1.145
			c0.021,0,0.039-0.002,0.06-0.002c0.73-0.041,2.993-1.832,3.098-2.537c0.104-0.713-0.657-1.16-0.387-1.902
			c-0.408-0.742-1.153-1.152-1.421-2.031c0.686-0.893,1.347-1.807,2.323-2.41c1.047,0.641,2.104,1.271,3.802,1.271
			c0.064,0,0.133-0.002,0.199-0.004c0.886-0.906,1.555-2.023,2.064-3.297c-0.669-1.416-2.082-2.1-3.097-3.174
			c0.565-0.879,0.683-2.203,1.418-2.918c0.573,0.096,1.342,0.151,2.101,0.151c0.694,0,1.38-0.048,1.901-0.151
			c0.722-0.978,1.251-3.08,0.773-4.439c0.054,0.003,0.106,0.003,0.158,0.003c1.412,0,2.266-0.546,3.455-0.765
			c0.975,1.157,1.937,2.326,2.84,3.553c-0.465,1.183-1.994,2.37-1.678,3.807c0.122,0.557,0.999,0.957,1.42,1.27
			c0.513,0.379,1.054,1.014,1.666,1.014c0.003,0,0.007,0,0.011,0c1.375-0.014,2.541-2.295,3.485-2.791
			c1.13,0.836,2.857,1.082,4.13,1.777c0.021,1.629-0.179,3.475,0.646,4.313c1.04,0.139,1.97,0.389,3.149,0.389
			c0.108,0,0.22-0.002,0.333-0.008c1.2-0.809,1.167-2.83,1.808-4.188c1.642-0.035,2.969-0.381,4.39-0.633
			c0.72,0.953,1.365,3.246,2.711,3.424c0.077,0.01,0.153,0.016,0.229,0.016c1.129,0,2.242-1.033,3.253-1.537
			c0.062-1.752-0.35-3.039-0.902-4.188c1.39-0.792,2.475-1.881,3.742-2.792c0.865,0.379,2.229,1.705,3.551,1.705
			c0.15,0,0.303-0.018,0.452-0.055c0.717-0.188,2.209-2.464,2.192-3.047c-0.039-1.396-2.449-2.359-2.711-3.426
			c0.736-1.223,0.988-2.921,1.81-4.061c0.437,0.082,0.907,0.125,1.379,0.125c1.211,0,2.416-0.278,3.008-0.884
			c-0.103-1.215,0.5-2.363,0.129-3.426c-0.92-0.956-2.637-1.129-4.129-1.522c-0.074-1.579-0.312-2.993-0.646-4.313
			c0.974-0.961,3.277-1.222,3.484-2.791c0.063-0.487-0.269-1.205-0.516-1.776c-0.224-0.512-0.457-1.129-0.904-1.396
			c-0.342-0.158-0.709-0.22-1.086-0.22c-1.149,0-2.393,0.584-3.301,0.853c-0.848-1.324-1.925-2.423-2.841-3.679
			c0.778-1.095,1.655-2.095,1.679-3.933c-0.857-0.892-1.816-1.682-3.099-2.157c-1.544,0.555-2.229,1.953-3.483,2.793
			c-1.105-0.86-2.878-1.064-4.13-1.778c0.245-1.382,0.113-3.039-0.39-4.059c-0.806-0.604-2.332-0.496-3.611-0.636
			c-1.245,0.766-1.274,2.724-1.808,4.188c-1.597,0.124-3.054,0.382-4.518,0.635c-0.827-1.166-1.197-3.249-2.711-3.426
			c-0.031-0.003-0.064-0.005-0.101-0.005c-0.862,0-3.011,1.036-3.255,1.528c-0.619,1.246,0.445,2.78,0.774,4.187
			c-1.354,0.826-2.378,1.978-3.743,2.791c-0.735-0.412-2.296-1.684-3.535-1.684c-0.115,0-0.228,0.011-0.336,0.035
			c-0.725,0.158-2.333,2.456-2.324,3.045c0.022,1.44,2.478,2.376,2.839,3.426c-0.799,1.159-1.047,2.861-1.807,4.061
			c-0.503-0.049-0.971-0.077-1.425-0.077c-0.692,0-1.354,0.063-2.06,0.204c-0.121-1.743-1.092-2.649-1.808-3.807
			c-0.146-0.009-0.288-0.014-0.425-0.014c-1.627,0-2.615,0.626-3.834,1.028c-0.77-0.767-1.473-1.597-2.066-2.538
			c0.511-1.181,2.231-2.217,1.938-3.806c-0.098-0.518-0.888-1.03-1.29-1.395c-0.521-0.472-1.029-1.121-1.68-1.143
			c-0.011,0-0.021,0-0.031,0c-0.642,0-1.389,0.63-1.903,1.015c-0.635,0.474-1.018,1.084-1.678,1.396
			c-0.813-0.724-2.097-0.986-2.709-1.904c0.39-1.122,0.896-2.719,0.515-4.187c-1.132-0.317-2.153-1.305-3.255-1.305
			c-0.118,0-0.237,0.011-0.357,0.036c-1.313,0.271-1.838,2.687-2.581,3.426c-1.114-0.216-2.388-0.277-3.228-0.761
			c-0.005-1.729-0.271-3.202-1.032-4.187c-0.784-0.074-1.628-0.174-2.412-0.174c-0.525,0-1.024,0.045-1.46,0.174
			c-0.776,1.012-0.901,2.665-1.162,4.187c-1.156,0.088-2.125,0.363-3.354,0.381c-0.452-1.543-1.191-2.805-2.323-3.68
			c-1.332,0.254-2.43,0.74-3.613,1.142c-0.447,1.415-0.012,3.032,0.258,4.44c-0.911,0.54-1.847,1.06-2.84,1.522
			c-1.04-0.602-2.042-2.54-3.519-2.54c-0.031,0-0.063,0-0.094,0.002c-0.532,0.03-1.223,0.653-1.678,1.015
			c-0.49,0.389-1.213,0.946-1.292,1.522c-0.19,1.416,1.253,2.43,1.679,3.679c-0.621,0.911-1.271,1.796-2.193,2.412
			c-1.261-0.495-2.286-1.221-4.001-1.271c-1.036,0.801-1.599,2.066-2.193,3.301c0.583,1.54,2.153,2.112,3.098,3.298
			c-0.519,0.845-0.729,1.989-1.29,2.791c-0.092,0.002-0.185,0.004-0.274,0.004c-0.555,0-1.055-0.054-1.403-0.257
			c0.25-0.963,1.406-2.542,1.289-3.427c-0.173-1.31-2.863-1.958-3.87-2.664c0.173-1.268,0.131-2.748,0.129-4.188
			c1.121-0.473,3.604-1.104,3.871-2.282c0.256-1.122-0.858-2.249-1.031-3.554c-0.466-0.173-1.006-0.242-1.564-0.242
			c-1.049,0-2.16,0.244-2.953,0.496c-0.79-1.211-1.732-2.271-2.451-3.552c0.624-1.289,1.639-2.194,1.678-4.061
			c-1.042-0.716-1.897-2.157-3.172-2.157c-0.019,0-0.037,0-0.056,0.001c-1.592,0.051-2.152,2.012-3.483,2.664
			c-1.21-0.628-2.826-0.859-4.001-1.522c0.093-1.783-0.266-3.124-0.903-4.187C22.059-11.289,21.337-11.338,20.615-11.338
			L20.615-11.338z"/>
	</g>
	<path d="M10.225,3.91C8.857,6.486,8.24,9.849,9.579,12.791C11.6,12.026,13.153,10.807,15,9.872c0.066-1.039,0.051-1.892,0.388-2.79
		c0.215-0.574,0.68-0.791,0.646-1.397c-0.015-0.266-0.402-0.869-0.646-1.268c-0.829-1.365-1.607-2.58-2.322-3.807
		C11.767,1.078,10.951,2.542,10.225,3.91z"/>
	<path d="M11.645,16.086c0,0.086,0,0.17,0,0.256c2.165,2.817,8.012,5.448,12.52,3.044c-1.102-1.667-2.033-3.499-3.098-5.202
		c-1.915,0.191-2.942-0.491-4.131-1.015C15.131,14.103,13.506,15.211,11.645,16.086z"/>
	<path d="M25.713-0.785c-2.42-1.285-6.337-1.994-9.164-0.763c-0.008,0.163-0.165,0.177-0.129,0.38
		c1.146,1.581,1.994,3.454,3.099,5.077c1.87-0.147,2.928,0.504,4.13,1.015c1.825-0.912,3.458-2.014,5.292-2.919
		C28.45,0.83,27.074-0.063,25.713-0.785z"/>
	<path d="M21.454,7.46c-2.057-1.276-4.607,1.878-1.936,3.425C22.263,11.538,22.907,8.362,21.454,7.46z"/>
	<path d="M24.551,12.663c1.191,1.45,1.802,3.474,3.099,4.821c3.169-1.955,4.978-7.252,3.483-12.181
		c-2.147,0.764-3.796,2.02-5.679,3.044C25.769,10.392,24.754,11.128,24.551,12.663z"/>
	<path d="M45.976,26.365c-0.099,1.985,0.535,4.305,1.161,6.09c1.269,3.629,3.265,6.35,5.936,8.627
		c0.942,0.805,3.306,3.092,4.646,2.664c0.648-0.207,0.771-1.238,1.032-2.156c0.248-0.873,0.742-2.061,0.646-2.666
		c-0.13-0.807-1.514-1.449-2.323-2.154c-2.994-2.61-4.821-6.266-5.162-10.912c-1.41-0.771-3.117-1.249-5.162-1.396
		C46.304,24.818,46.01,25.629,45.976,26.365z"/>
	<path d="M61.462,6.574c-5.938,1.461-11.184,5.847-13.036,10.403c-0.132,0.328-0.042,0.131,0,0.508
		c0.354,0.617,4.207,1.705,5.035,1.521c0.772-0.171,1.319-1.447,2.064-2.283c2.771-3.117,6.48-4.507,11.229-5.074
		c0.499-1.504,1.406-3.262,1.161-5.075C65.975,5.403,63.446,6.084,61.462,6.574z"/>
	<path d="M60.559,29.791c0.891,1.343,2.718,2.804,5.032,3.043c3.271,0.341,5.843-1.42,6.971-3.424
		c2.535-4.512-0.746-10.439-6.324-10.277c-1.737,0.051-4.347,1.564-4.904,2.156c-1.281,1.362-2.111,3.491-1.678,5.963
		C59.837,28.285,60.271,29.356,60.559,29.791z"/>
	<path d="M65.076,45.649c1.33,0.598,2.901,0.449,4.26,0.256c1.3-0.188,2.766-0.51,3.871-0.891c1.092-0.373,2.054-1.104,3.099-1.648
		c1.159-0.604,2.271-1.1,3.098-1.775c2.225-1.822,4.146-4.205,5.162-6.852c-0.348-0.681-1.262-0.888-2.193-1.141
		c-0.927-0.255-2.147-0.758-2.84-0.637c-1.102,0.195-1.804,1.999-2.58,2.792c-2.516,2.57-6.29,4.234-10.713,4.568
		C65.634,41.762,64.539,43.915,65.076,45.649z"/>
	<path d="M83.403,27.125c0.757,0.203,1.906,0.721,2.582,0.508c1.53-0.48,0.715-4.598,0.258-6.344
		c-0.606-2.316-1.375-4.195-2.323-5.709c-0.79-1.261-2.317-3.124-3.612-4.313c-0.782-0.717-3.979-3.311-5.034-3.046
		c-0.782,0.197-2.11,4.44-1.42,5.457c0.827,0.907,1.866,1.471,2.711,2.283c2.668,2.566,3.86,5.721,4.518,10.403
		C81.79,26.627,82.526,26.89,83.403,27.125z"/>
	<path d="M91.405,16.086c0.268,1.133,0.676,2.129,1.032,3.173c1.661-0.021,3.507-0.253,4.518,0.634
		c0.211,1.104,0.444,2.187,0.518,3.427c-0.824,1.221-2.708,1.397-4.262,1.903c0,1.058,0,2.114,0,3.171
		c0.792,0.364,1.802,0.514,2.582,0.889c-0.097-1.25-1.189-1.855-1.031-2.918c0.189-1.275,2.692-2.084,3.484-2.664
		c-0.286-1.41-0.454-2.938-0.646-4.44c-1.482-0.544-3.898-0.399-4.261-1.902c-0.176-0.732,0.401-1.444,0.26-2.538
		C92.742,15.12,92.223,15.749,91.405,16.086z"/>
	<path fill="#FFFFFF" d="M101.343,19.133c-0.143-5.429,2.078-9.489,5.162-12.307c3.205-2.928,8.787-5.354,14.972-3.932
		c6.081,1.396,11.228,6.689,12.262,13.066c0.381,2.354,0.264,4.364-0.388,6.725c-2.013,7.293-8.48,12.195-16.393,11.927
		c-3.712-0.127-6.959-1.575-9.162-3.173c-1.204-0.872-2.756-2.284-3.742-3.679C102.868,26.088,101.433,22.597,101.343,19.133z
		 M108.699,18.75c0.174-3.788-5.979-3.342-5.033,0.509C104.338,21.995,108.575,21.493,108.699,18.75z M112.055,26.746
		c0.203-3.635-5.87-3.444-5.033,0.379C107.675,30.117,111.907,29.365,112.055,26.746z M109.731,13.169
		c3.543-0.28,2.696-5.89-1.032-5.074c-1.13,0.246-1.937,1.733-1.677,3.045C107.288,12.492,108.04,13.305,109.731,13.169z
		 M113.732,23.701c4.674,3.379,11.947-1.243,9.938-7.231c-0.559-1.661-2.664-3.962-5.551-4.187
		c-4.317-0.335-7.023,3.131-6.841,6.597C111.402,21.174,112.408,22.744,113.732,23.701z M120.185,29.916
		c0.011-1.121-0.847-2.711-2.71-2.664c-1.771,0.045-2.672,1.839-2.322,3.3C115.814,33.32,120.158,32.811,120.185,29.916z
		 M120.185,7.206c-0.048-1.253-1.163-2.263-1.808-2.409c-3.921-0.9-4.997,5.733,0.129,4.947
		C119.407,9.09,120.238,8.545,120.185,7.206z M128.317,26.492c-0.049-2.094-2.581-3.203-4.259-2.031
		c-1.679,1.174-1.118,3.816,0.773,4.568C127.066,29.281,128.355,28.162,128.317,26.492z M125.606,13.169
		c3.863,0.041,3.319-5.941-0.646-5.074c-1.055,0.23-1.951,1.658-1.806,2.79C123.333,12.283,124.11,13.154,125.606,13.169z
		 M131.543,17.738c-0.498-2.151-4.521-2.113-5.033,0c0.083,0.51-0.168,1.349,0.129,1.649
		C127.333,22.118,132.418,21.432,131.543,17.738z"/>
	<g>
		<path d="M13.065,0.61c0.715,1.227,1.493,2.441,2.322,3.807c0.242,0.398,0.631,1.002,0.646,1.268
			c0.034,0.606-0.431,0.823-0.646,1.397c-0.337,0.898-0.32,1.751-0.388,2.79c-1.847,0.935-3.399,2.154-5.421,2.919
			C8.239,9.85,8.856,6.486,10.225,3.91C10.951,2.542,11.767,1.078,13.065,0.61z"/>
		<path d="M16.936,13.169c1.188,0.523,2.216,1.206,4.131,1.015c1.063,1.703,1.996,3.535,3.098,5.202
			c-4.508,2.404-10.354-0.227-12.52-3.044c0-0.086,0-0.17,0-0.256C13.506,15.211,15.131,14.103,16.936,13.169z"/>
		<path d="M28.94,2.004c-1.834,0.905-3.467,2.007-5.292,2.919c-1.202-0.511-2.26-1.162-4.13-1.015
			c-1.104-1.623-1.951-3.496-3.099-5.077c-0.036-0.203,0.121-0.217,0.129-0.38c2.827-1.231,6.744-0.522,9.164,0.763
			C27.074-0.063,28.45,0.83,28.94,2.004z"/>
		<path d="M19.518,10.886c-2.673-1.547-0.121-4.701,1.936-3.425C22.907,8.362,22.263,11.538,19.518,10.886z"/>
		<path d="M25.455,8.348c1.883-1.024,3.53-2.28,5.679-3.044c1.493,4.929-0.314,10.226-3.483,12.181
			c-1.297-1.348-1.906-3.371-3.098-4.821C24.754,11.128,25.769,10.392,25.455,8.348z"/>
		<path d="M46.75,24.461c2.045,0.146,3.752,0.625,5.162,1.396c0.341,4.646,2.168,8.302,5.162,10.912
			c0.811,0.705,2.193,1.348,2.323,2.154c0.098,0.605-0.396,1.793-0.646,2.666c-0.261,0.918-0.384,1.949-1.032,2.156
			c-1.342,0.428-3.704-1.859-4.646-2.664c-2.671-2.277-4.667-4.998-5.936-8.627c-0.626-1.785-1.26-4.104-1.161-6.09
			C46.01,25.629,46.304,24.818,46.75,24.461z"/>
		<path d="M67.916,6.574c0.245,1.813-0.662,3.571-1.161,5.075c-4.747,0.567-8.456,1.957-11.229,5.074
			c-0.745,0.836-1.292,2.112-2.064,2.283c-0.828,0.184-4.682-0.904-5.034-1.521c-0.043-0.377-0.133-0.18,0-0.508
			c1.853-4.557,7.097-8.942,13.035-10.403C63.446,6.084,65.975,5.403,67.916,6.574z"/>
		<path d="M59.656,27.252c-0.435-2.473,0.396-4.601,1.678-5.963c0.559-0.592,3.167-2.105,4.904-2.156
			c5.578-0.162,8.859,5.767,6.324,10.277c-1.128,2.004-3.698,3.765-6.971,3.424c-2.314-0.239-4.143-1.7-5.032-3.043
			C60.271,29.356,59.837,28.285,59.656,27.252z"/>
		<path d="M66.238,40.323c4.423-0.334,8.197-1.998,10.713-4.568c0.776-0.795,1.479-2.596,2.58-2.792
			c0.691-0.122,1.913,0.381,2.84,0.636c0.933,0.253,1.847,0.46,2.193,1.142c-1.017,2.645-2.938,5.027-5.162,6.85
			c-0.826,0.678-1.938,1.174-3.098,1.777c-1.046,0.545-2.007,1.275-3.099,1.648c-1.105,0.379-2.572,0.701-3.871,0.889
			c-1.357,0.193-2.93,0.344-4.26-0.256C64.539,43.915,65.634,41.762,66.238,40.323z"/>
		<path d="M81.081,26.365c-0.656-4.684-1.85-7.837-4.518-10.404c-0.846-0.813-1.884-1.376-2.711-2.283
			c-0.69-1.017,0.638-5.26,1.42-5.457c1.057-0.265,4.252,2.329,5.034,3.046c1.295,1.189,2.822,3.053,3.612,4.313
			c0.948,1.514,1.717,3.393,2.323,5.709c0.457,1.746,1.272,5.863-0.258,6.344c-0.676,0.213-1.825-0.304-2.582-0.507
			C82.526,26.89,81.79,26.627,81.081,26.365z"/>
		<path d="M93.599,14.82c0.143,1.094-0.436,1.806-0.26,2.538c0.361,1.503,2.777,1.358,4.261,1.902
			c0.19,1.504,0.358,3.031,0.646,4.439c-0.792,0.58-3.295,1.389-3.484,2.664c-0.158,1.063,0.936,1.67,1.031,2.918
			c-0.78-0.373-1.79-0.522-2.582-0.888c0-1.058,0-2.114,0-3.171c1.554-0.506,3.438-0.684,4.262-1.904
			c-0.072-1.239-0.307-2.321-0.518-3.426c-1.011-0.887-2.855-0.654-4.518-0.634c-0.356-1.044-0.766-2.04-1.032-3.173
			C92.223,15.749,92.742,15.12,93.599,14.82z"/>
		<g>
			<path d="M100.956,20.656c-0.315-2.773-0.063-5.563,0.774-7.865c2.004-5.51,7.881-10.719,15.616-10.785
				c9.525-0.08,16.927,7.392,17.035,16.24c0.063,5.066-1.996,9.48-5.421,12.561c-2.876,2.589-8.393,5.245-14.712,4.061
				c-5.741-1.075-10.097-5.116-12.133-9.897C101.563,23.668,101.166,22.496,100.956,20.656z M104.053,27.761
				c0.986,1.394,2.538,2.808,3.742,3.679c2.203,1.598,5.45,3.047,9.162,3.172c7.911,0.27,14.38-4.633,16.393-11.926
				c0.65-2.36,0.769-4.371,0.388-6.725c-1.034-6.377-6.181-11.67-12.262-13.066c-6.185-1.422-11.767,1.004-14.972,3.932
				c-3.084,2.817-5.305,6.878-5.162,12.307C101.433,22.597,102.868,26.088,104.053,27.761z"/>
			<g>
				<path d="M103.666,19.26c-0.946-3.851,5.207-4.297,5.033-0.509C108.575,21.493,104.338,21.995,103.666,19.26z"/>
				<path d="M107.022,27.125c-0.837-3.823,5.236-4.014,5.033-0.379C111.907,29.365,107.675,30.117,107.022,27.125z"/>
				<path d="M107.022,11.141c-0.26-1.312,0.547-2.799,1.677-3.045c3.729-0.815,4.575,4.794,1.032,5.074
					C108.04,13.305,107.288,12.492,107.022,11.141z"/>
				<path d="M111.28,18.878c-0.184-3.466,2.522-6.932,6.841-6.597c2.887,0.225,4.992,2.525,5.551,4.187
					c2.009,5.989-5.266,10.609-9.938,7.23C112.408,22.744,111.402,21.174,111.28,18.878z"/>
				<path d="M115.153,30.552c-0.35-1.461,0.552-3.255,2.322-3.3c1.863-0.047,2.721,1.543,2.71,2.664
					C120.158,32.811,115.814,33.32,115.153,30.552z"/>
				<path d="M118.507,9.745c-5.126,0.786-4.05-5.848-0.129-4.947c0.645,0.146,1.76,1.156,1.808,2.409
					C120.238,8.545,119.407,9.09,118.507,9.745z"/>
				<path d="M124.833,29.029c-1.893-0.752-2.452-3.396-0.773-4.568c1.678-1.172,4.21-0.063,4.259,2.031
					C128.355,28.162,127.066,29.281,124.833,29.029z"/>
				<path d="M123.155,10.886c-0.146-1.132,0.751-2.56,1.806-2.79c3.967-0.867,4.51,5.115,0.646,5.074
					C124.11,13.154,123.333,12.283,123.155,10.886z"/>
				<path d="M126.638,19.387c-0.297-0.301-0.046-1.14-0.129-1.649c0.513-2.113,4.535-2.151,5.033,0
					C132.418,21.432,127.333,22.118,126.638,19.387z"/>
			</g>
		</g>
	</g>
</g>
<g>
	<path fill="#FFFFFF" stroke="#000000" stroke-width="0.5669" stroke-linecap="square" stroke-miterlimit="10" d="M36.919,70.274
		c-0.016,0.27-0.08,1.264-0.993,1.68c-0.495,0.225-1.071,0.225-1.601,0.225h-3.569V60.875h3.505c0.673,0,1.313-0.016,1.873,0.434
		c0.641,0.496,0.673,1.152,0.673,1.873v1.008c0,0.033,0,0.496-0.064,0.801c-0.208,0.945-0.912,1.041-1.249,1.105
		c0.656,0.127,0.913,0.287,1.121,0.543c0.352,0.465,0.32,0.992,0.32,1.521v1.602C36.935,69.936,36.919,70.112,36.919,70.274z
		 M34.742,63.534c0-0.271-0.016-0.354-0.048-0.496c-0.145-0.527-0.592-0.545-1.024-0.545h-0.832v2.85h0.752
		c0.288,0,0.433-0.016,0.562-0.031c0.399-0.08,0.592-0.32,0.592-1.008L34.742,63.534L34.742,63.534z M34.885,68.079
		c0-0.336,0-0.463-0.063-0.623c-0.16-0.465-0.672-0.48-1.089-0.48h-0.896v3.568h0.88c0.177,0,0.368,0,0.528-0.031
		c0.448-0.063,0.641-0.336,0.641-1.104V68.079z"/>
	<path fill="#FFFFFF" stroke="#000000" stroke-width="0.5669" stroke-linecap="square" stroke-miterlimit="10" d="M40.533,68.495
		v1.346c0,0.287,0,0.4,0.048,0.545c0.128,0.416,0.496,0.465,0.656,0.465c0.304,0,0.512-0.16,0.607-0.449
		c0.08-0.225,0.064-0.816,0.064-0.928h1.841v0.654c0,0.289,0,0.465-0.08,0.736c-0.319,1.152-1.345,1.473-2.433,1.473
		c-1.681,0-2.241-0.832-2.465-1.566c-0.112-0.4-0.145-0.979-0.145-1.074v-3.457c0-0.127,0.017-0.672,0.208-1.104
		c0.4-0.959,1.457-1.313,2.417-1.313c1.329,0,2.065,0.672,2.306,1.168c0.144,0.289,0.224,0.545,0.224,1.168v2.338h-3.249V68.495z
		 M41.893,66.143c0-0.176,0.031-0.816-0.656-0.816c-0.688,0-0.704,0.609-0.704,0.816v1.008h1.36V66.143L41.893,66.143z"/>
	<path fill="#FFFFFF" stroke="#000000" stroke-width="0.5669" stroke-linecap="square" stroke-miterlimit="10" d="M49.205,65.727
		c-0.144-0.064-0.304-0.129-0.624-0.129c-0.112,0-0.432,0-0.72,0.191c-0.528,0.369-0.512,1.01-0.512,1.555v4.834h-1.89v-8.195h1.905
		l-0.016,1.039c0.048-0.08,0.128-0.271,0.287-0.479c0.528-0.705,1.249-0.721,1.585-0.705L49.205,65.727z"/>
	<path fill="#FFFFFF" stroke="#000000" stroke-width="0.5669" stroke-linecap="square" stroke-miterlimit="10" d="M52.341,68.495
		v1.346c0,0.287,0,0.4,0.049,0.545c0.128,0.416,0.495,0.465,0.655,0.465c0.305,0,0.513-0.16,0.608-0.449
		c0.08-0.225,0.063-0.816,0.063-0.928h1.842v0.654c0,0.289,0,0.465-0.08,0.736c-0.32,1.152-1.346,1.473-2.434,1.473
		c-1.681,0-2.24-0.832-2.465-1.566c-0.112-0.4-0.144-0.979-0.144-1.074v-3.457c0-0.127,0.016-0.672,0.208-1.104
		c0.399-0.959,1.457-1.313,2.417-1.313c1.329,0,2.064,0.672,2.305,1.168c0.144,0.289,0.224,0.545,0.224,1.168v2.338h-3.249V68.495z
		 M53.701,66.143c0-0.176,0.032-0.816-0.656-0.816c-0.688,0-0.704,0.609-0.704,0.816v1.008h1.36V66.143z"/>
	<path fill="#FFFFFF" stroke="#000000" stroke-width="0.5669" stroke-linecap="square" stroke-miterlimit="10" d="M61.973,71.504
		c-0.688,0.865-1.857,0.832-2.13,0.832c-1.185,0-1.809-0.367-2.177-0.768c-0.048-0.064-0.224-0.305-0.336-0.576
		c-0.128-0.336-0.16-0.672-0.16-1.041v-3.633c0-0.592,0.08-1.09,0.448-1.568c0.704-0.914,1.969-0.93,2.225-0.93
		c0.192,0,1.905,0,2.434,1.232c0.096,0.24,0.16,0.514,0.16,1.057v0.977h-1.873v-0.99c0-0.209-0.017-0.307-0.032-0.4
		c-0.048-0.176-0.224-0.529-0.688-0.514c-0.224,0-0.367,0.064-0.447,0.111c-0.256,0.178-0.336,0.434-0.336,0.992v3.57
		c0,0.287,0,0.416,0.048,0.561c0.096,0.336,0.368,0.514,0.705,0.514c0.048,0,0.256-0.018,0.416-0.113
		c0.304-0.207,0.319-0.623,0.319-0.943V68.93h1.89v0.928C62.438,70.112,62.469,70.879,61.973,71.504z"/>
	<path fill="#FFFFFF" stroke="#000000" stroke-width="0.5669" stroke-linecap="square" stroke-miterlimit="10" d="M67.365,72.178
		v-5.826c0-0.336,0-0.48-0.064-0.643c-0.111-0.238-0.367-0.367-0.64-0.367c-0.512,0-0.672,0.385-0.72,0.561
		c-0.032,0.129-0.032,0.193-0.032,0.336v5.939h-1.905V60.875h1.873l0.017,3.764c0.208-0.225,0.72-0.816,1.665-0.816
		c0.735,0,1.359,0.4,1.601,1.119c0.064,0.193,0.112,0.4,0.112,0.816v6.42H67.365z"/>
	<path fill="#FFFFFF" stroke="#000000" stroke-width="0.5669" stroke-linecap="square" stroke-miterlimit="10" d="M74.453,72.178
		v-6.035c0-0.514-0.031-0.721-0.288-0.881c-0.063-0.049-0.176-0.096-0.368-0.096c-0.896,0-0.815,0.943-0.815,1.104v5.906h-1.905
		v-8.193h1.938l-0.018,0.592c0.496-0.479,0.896-0.752,1.633-0.752c0.753,0,1.457,0.383,1.648,1.152
		c0.063,0.225,0.063,0.367,0.063,0.801v6.402H74.453z"/>
	<path fill="#FFFFFF" stroke="#000000" stroke-width="0.5669" stroke-linecap="square" stroke-miterlimit="10" d="M79.957,68.495
		v1.346c0,0.287,0,0.4,0.047,0.545c0.129,0.416,0.496,0.465,0.656,0.465c0.305,0,0.513-0.16,0.609-0.449
		c0.08-0.225,0.063-0.816,0.063-0.928h1.841v0.654c0,0.289,0,0.465-0.08,0.736c-0.319,1.152-1.345,1.473-2.434,1.473
		c-1.68,0-2.24-0.832-2.465-1.566c-0.111-0.4-0.145-0.979-0.145-1.074v-3.457c0-0.127,0.017-0.672,0.208-1.104
		c0.4-0.959,1.457-1.313,2.417-1.313c1.329,0,2.065,0.672,2.306,1.168c0.145,0.289,0.225,0.545,0.225,1.168v2.338h-3.248V68.495z
		 M81.316,66.143c0-0.176,0.033-0.816-0.656-0.816c-0.688,0-0.703,0.609-0.703,0.816v1.008h1.359V66.143z"/>
	<path fill="#FFFFFF" stroke="#000000" stroke-width="0.5669" stroke-linecap="square" stroke-miterlimit="10" d="M95.206,70.274
		c-0.016,0.27-0.08,1.264-0.992,1.68c-0.496,0.225-1.071,0.225-1.601,0.225h-3.569V60.875h3.505c0.673,0,1.313-0.016,1.873,0.434
		c0.641,0.496,0.672,1.152,0.672,1.873v1.008c0,0.033,0,0.496-0.063,0.801c-0.208,0.945-0.913,1.041-1.249,1.105
		c0.656,0.127,0.912,0.287,1.12,0.543c0.353,0.465,0.32,0.992,0.32,1.521v1.602C95.221,69.936,95.206,70.112,95.206,70.274z
		 M93.029,63.534c0-0.271-0.017-0.354-0.048-0.496c-0.146-0.527-0.593-0.545-1.024-0.545h-0.833v2.85h0.753
		c0.288,0,0.433-0.016,0.561-0.031c0.399-0.08,0.593-0.32,0.593-1.008L93.029,63.534L93.029,63.534z M93.173,68.079
		c0-0.336,0-0.463-0.063-0.623c-0.16-0.465-0.673-0.48-1.089-0.48h-0.896v3.568h0.881c0.177,0,0.368,0,0.528-0.031
		c0.448-0.063,0.64-0.336,0.64-1.104L93.173,68.079L93.173,68.079z"/>
	<path fill="#FFFFFF" stroke="#000000" stroke-width="0.5669" stroke-linecap="square" stroke-miterlimit="10" d="M104.437,72.178
		l0.191-9.797l-1.823,9.797h-1.938l-1.872-9.797l0.16,9.797h-2.049V60.875h3.393l1.329,7.908l1.345-7.908h3.346v11.303H104.437z"/>
	<path fill="#FFFFFF" stroke="#000000" stroke-width="0.5669" stroke-linecap="square" stroke-miterlimit="10" d="M108.515,72.178
		V60.875h2.063v11.303H108.515z"/>
</g>
</svg>
