<?xml version="1.0" encoding="utf-8"?>
<!-- Generator: Adobe Illustrator 15.0.0, SVG Export Plug-In . SVG Version: 6.00 Build 0)  -->
<!DOCTYPE svg PUBLIC "-//W3C//DTD SVG 1.1//EN" "http://www.w3.org/Graphics/SVG/1.1/DTD/svg11.dtd">
<svg version="1.1" id="Ebene_1" xmlns="http://www.w3.org/2000/svg" xmlns:xlink="http://www.w3.org/1999/xlink" x="0px" y="0px"
	 width="141.73px" height="90.709px" viewBox="0 0 141.73 90.709" enable-background="new 0 0 141.73 90.709" xml:space="preserve">
<g>
	<g>
		<path d="M3.903,22.224c-0.02-1.542-0.148-2.663,0.129-4.061c-0.803-0.672-2.022-0.961-2.968-1.648
			c-0.341-0.247-0.708-0.55-0.774-0.762c-0.406-1.291,0.789-2.589,1.161-3.808c1.523-0.402,3.112,0.13,4.389,0.382
			c0.977-0.988,1.739-2.183,2.582-3.3c-0.188-0.735-0.578-1.17-0.904-1.901C7.27,6.576,6.74,5.77,6.871,5.097
			C6.996,4.455,9.188,2.808,10.1,2.813c1.438,0.01,2.511,2.038,3.354,2.792c1.351-0.408,2.597-0.917,4.13-1.145
			c0.13-1.646,0.396-3.162,1.032-4.313c1.114-0.197,2.888-0.197,4.001,0c0.64,1.063,0.997,2.402,0.904,4.188
			c1.175,0.663,2.791,0.896,4.001,1.521c1.331-0.651,1.893-2.612,3.481-2.664c1.308-0.042,2.17,1.431,3.229,2.156
			c-0.039,1.865-1.057,2.771-1.681,4.062c0.721,1.28,1.662,2.341,2.452,3.552c1.215-0.387,3.179-0.753,4.52-0.254
			c0.173,1.306,1.288,2.433,1.032,3.555c-0.271,1.179-2.75,1.81-3.872,2.281c0.002,1.438,0.044,2.92-0.128,4.188
			c1.006,0.706,3.695,1.354,3.868,2.664c0.117,0.885-1.041,2.464-1.291,3.427c0.406,0.235,1.018,0.271,1.681,0.254
			c0.561-0.803,0.771-1.946,1.29-2.791c-0.944-1.187-2.517-1.759-3.1-3.299c0.598-1.233,1.158-2.5,2.193-3.301
			c1.714,0.05,2.74,0.774,4.001,1.271c0.923-0.616,1.572-1.501,2.193-2.412c-0.428-1.249-1.869-2.263-1.681-3.679
			c0.079-0.576,0.804-1.135,1.292-1.522c0.455-0.36,1.146-0.983,1.68-1.015c1.526-0.085,2.552,1.923,3.61,2.537
			c0.993-0.464,1.931-0.982,2.839-1.522c-0.269-1.407-0.702-3.024-0.257-4.439c1.187-0.4,2.281-0.888,3.613-1.142
			c1.132,0.875,1.871,2.137,2.323,3.68c1.229-0.019,2.195-0.293,3.354-0.381c0.261-1.521,0.386-3.176,1.162-4.188
			c1.081-0.32,2.563-0.124,3.872,0c0.762,0.983,1.027,2.457,1.032,4.188c0.84,0.482,2.111,0.545,3.228,0.761
			c0.743-0.738,1.27-3.153,2.581-3.426c1.241-0.256,2.359,0.917,3.612,1.27c0.381,1.468-0.125,3.063-0.515,4.188
			c0.61,0.918,1.896,1.182,2.709,1.903c0.657-0.313,1.043-0.923,1.678-1.396c0.521-0.393,1.287-1.035,1.936-1.015
			c0.649,0.021,1.157,0.671,1.682,1.143c0.4,0.364,1.19,0.877,1.29,1.396c0.295,1.59-1.429,2.625-1.938,3.807
			c0.595,0.94,1.298,1.771,2.066,2.538c1.318-0.437,2.372-1.137,4.259-1.016c0.716,1.157,1.687,2.063,1.808,3.808
			c1.17-0.232,2.214-0.252,3.483-0.127c0.76-1.199,1.008-2.9,1.807-4.062c-0.359-1.051-2.813-1.984-2.839-3.427
			c-0.009-0.589,1.603-2.887,2.324-3.045c1.278-0.277,3.065,1.199,3.871,1.648c1.365-0.813,2.389-1.965,3.743-2.791
			c-0.329-1.405-1.396-2.939-0.774-4.188c0.254-0.513,2.572-1.613,3.354-1.521c1.514,0.178,1.884,2.261,2.711,3.427
			c1.464-0.253,2.921-0.512,4.518-0.636c0.532-1.464,0.563-3.422,1.807-4.188c1.28,0.141,2.81,0.032,3.612,0.637
			c0.503,1.021,0.635,2.677,0.389,4.06c1.253,0.714,3.024,0.918,4.133,1.777c1.255-0.84,1.938-2.237,3.481-2.793
			c1.281,0.477,2.24,1.267,3.101,2.157c-0.022,1.838-0.899,2.838-1.681,3.933c0.916,1.257,1.993,2.354,2.84,3.68
			c1.207-0.355,3.002-1.271,4.39-0.633c0.444,0.267,0.682,0.884,0.901,1.396c0.248,0.57,0.58,1.288,0.519,1.775
			c-0.207,1.568-2.514,1.83-3.484,2.791c0.336,1.319,0.572,2.733,0.646,4.313c1.49,0.395,3.209,0.565,4.129,1.521
			c0.371,1.063-0.23,2.211-0.129,3.426c-0.822,0.843-2.828,1.052-4.39,0.762c-0.817,1.14-1.069,2.838-1.809,4.061
			c0.262,1.064,2.672,2.028,2.711,3.426c0.016,0.583-1.477,2.858-2.193,3.046c-1.449,0.373-3.035-1.229-4.002-1.648
			c-1.269,0.91-2.354,2-3.741,2.792c0.555,1.146,0.965,2.438,0.901,4.188c-1.08,0.539-2.273,1.683-3.48,1.521
			c-1.348-0.178-1.991-2.472-2.712-3.425c-1.423,0.253-2.747,0.601-4.391,0.633c-0.641,1.356-0.604,3.38-1.808,4.188
			c-1.346,0.055-2.349-0.229-3.482-0.381c-0.825-0.84-0.625-2.687-0.646-4.313c-1.271-0.692-3-0.938-4.13-1.774
			c-0.944,0.494-2.11,2.775-3.485,2.791c-0.616,0.008-1.161-0.636-1.677-1.017c-0.421-0.312-1.298-0.712-1.42-1.269
			c-0.316-1.438,1.213-2.626,1.678-3.809c-0.903-1.228-1.865-2.396-2.84-3.553c-1.233,0.227-2.105,0.805-3.613,0.762
			c0.478,1.358-0.053,3.463-0.773,4.438c-1.092,0.221-2.901,0.185-4.003,0c-0.732,0.716-0.852,2.041-1.418,2.919
			c1.018,1.073,2.431,1.759,3.1,3.174c-0.514,1.272-1.183,2.394-2.064,3.298c-1.813,0.053-2.914-0.604-4.001-1.27
			c-0.978,0.604-1.639,1.52-2.324,2.41c0.271,0.879,1.016,1.289,1.423,2.029c-0.271,0.742,0.488,1.189,0.388,1.902
			c-0.104,0.703-2.366,2.496-3.101,2.535c-0.735,0.043-1.296-0.721-1.936-1.141c-0.641-0.424-1.146-0.908-1.679-1.523
			c-0.962,0.451-1.88,0.943-2.839,1.396c0.191,1.367,0.729,2.812,0.389,4.313c-0.396,0.492-1.048,0.529-1.679,0.761
			c-0.594,0.215-1.29,0.696-1.811,0.636c-1.684-0.201-1.809-2.604-2.71-3.808c-1.076,0.127-2.063,0.341-3.098,0.508
			c-0.335,1.573-0.429,3.388-1.42,4.313c-1.408,0.031-2.701-0.053-3.872-0.254c-0.59-1.109-0.977-2.428-0.902-4.188
			c-0.925-0.357-2.165-0.407-3.098-0.76c-0.813,0.761-1.525,3.342-2.84,3.551c-0.976,0.157-3.024-1.02-3.614-1.646
			c-0.082-1.604,0.299-2.752,0.646-3.935c-0.634-0.815-1.802-1.104-2.582-1.774c-1.311,0.279-2.049,2.438-3.871,2.281
			c-0.472-0.04-2.679-1.662-2.84-2.41c-0.322-1.511,1.356-2.66,1.938-3.807c-0.519-1.059-1.344-1.809-2.064-2.664
			c-1.147,0.484-2.612,1.311-4.13,1.018c-0.484-0.252-0.866-0.867-1.161-1.396c-0.279-0.506-0.791-1.354-0.771-1.775
			c0.046-1.221,2.229-2.365,3.226-2.916c-0.218-1.226-0.684-2.204-1.032-3.301c-1.453,0.266-3.335,0.142-4.388-0.382
			c-0.271-1.054-0.722-2.569-0.515-3.679c0.745-1.255,2.777-1.241,4.129-1.901c0-1.017,0-2.029,0-3.046
			c-1.36-0.649-3.146-0.884-4.001-2.031c0.239-1.541,0.229-3.324,1.291-4.062c-0.839-0.063-1.418-0.381-2.194-0.507
			c-1.017,0.989-1.699,2.308-2.711,3.299c0.402,1.346,1.969,2.347,1.55,4.061c-0.147,0.616-2.347,2.276-3.098,2.285
			c-1.388,0.016-2.537-2.347-3.484-2.919c-1.288,0.426-2.458,0.969-4.001,1.143c-0.169,1.736-0.335,3.479-1.291,4.44
			c-1.226-0.063-2.723,0.141-3.742-0.128c-0.815-0.931-0.813-2.669-1.03-4.188c-1.073-0.722-2.729-0.871-3.872-1.522
			c-0.771,0.337-1.234,1.401-2.065,2.029c-0.328,0.249-1.128,0.77-1.549,0.763c-0.585-0.009-1.161-0.758-1.678-1.142
			c-0.509-0.38-1.279-0.604-1.42-1.271c-0.294-1.378,1.235-2.875,1.676-3.806c-0.698-1.346-1.692-2.396-2.453-3.68
			c-1.116,0.434-2.926,0.69-4.388,0.38c-0.531-0.993-0.923-2.214-1.162-3.171C-0.328,23.579,2.67,22.749,3.903,22.224z
			 M10.227,15.248c-1.368,2.576-1.985,5.938-0.646,8.881c2.021-0.766,3.574-1.983,5.42-2.919c0.066-1.039,0.052-1.893,0.391-2.79
			c0.214-0.573,0.68-0.791,0.645-1.396c-0.015-0.267-0.402-0.869-0.645-1.269c-0.83-1.364-1.608-2.58-2.323-3.808
			C11.769,12.416,10.952,13.879,10.227,15.248z M11.647,27.424c0,0.086,0,0.17,0,0.257c2.165,2.816,8.012,5.447,12.519,3.044
			c-1.101-1.667-2.033-3.499-3.098-5.202c-1.915,0.19-2.942-0.49-4.13-1.016C15.132,25.44,13.508,26.549,11.647,27.424z
			 M25.715,10.552c-2.42-1.284-6.337-1.993-9.164-0.763c-0.007,0.163-0.165,0.177-0.129,0.38c1.146,1.581,1.994,3.454,3.101,5.077
			c1.871-0.146,2.928,0.504,4.13,1.015c1.826-0.911,3.458-2.014,5.292-2.919C28.451,12.167,27.075,11.274,25.715,10.552z
			 M21.456,18.798c-2.057-1.275-4.606,1.878-1.937,3.426C22.265,22.875,22.908,19.7,21.456,18.798z M24.552,24
			c1.192,1.45,1.803,3.475,3.101,4.82c3.169-1.954,4.978-7.252,3.481-12.181c-2.146,0.764-3.796,2.021-5.679,3.044
			C25.771,21.729,24.756,22.466,24.552,24z M45.978,37.703c-0.101,1.985,0.534,4.305,1.161,6.091
			c1.269,3.628,3.265,6.351,5.936,8.627c0.942,0.806,3.306,3.093,4.646,2.664c0.647-0.208,0.771-1.237,1.031-2.157
			c0.248-0.871,0.742-2.061,0.646-2.664c-0.13-0.809-1.516-1.449-2.323-2.154c-2.994-2.61-4.821-6.268-5.162-10.912
			c-1.41-0.771-3.117-1.249-5.162-1.396C46.306,36.155,46.011,36.967,45.978,37.703z M61.464,17.912
			c-5.938,1.461-11.184,5.847-13.036,10.402c-0.132,0.328-0.042,0.131,0,0.508c0.354,0.617,4.207,1.705,5.035,1.521
			c0.772-0.171,1.319-1.446,2.064-2.282c2.771-3.117,6.479-4.508,11.229-5.074c0.499-1.504,1.406-3.262,1.161-5.074
			C65.977,16.741,63.447,17.422,61.464,17.912z M60.561,41.129c0.891,1.344,2.718,2.805,5.03,3.044
			c3.271,0.341,5.845-1.42,6.973-3.425c2.535-4.512-0.746-10.439-6.324-10.277c-1.737,0.051-4.347,1.563-4.904,2.155
			c-1.28,1.361-2.109,3.491-1.678,5.964C59.839,39.624,60.273,40.694,60.561,41.129z M65.077,56.986
			c1.33,0.6,2.901,0.449,4.26,0.257c1.299-0.188,2.768-0.511,3.871-0.89c1.092-0.373,2.053-1.104,3.101-1.648
			c1.157-0.604,2.271-1.102,3.098-1.775c2.225-1.822,4.146-4.205,5.162-6.852c-0.35-0.683-1.263-0.89-2.193-1.143
			c-0.927-0.255-2.146-0.759-2.84-0.637c-1.102,0.195-1.804,1.998-2.58,2.792c-2.516,2.57-6.29,4.234-10.713,4.568
			C65.635,53.102,64.54,55.253,65.077,56.986z M83.404,38.464c0.757,0.203,1.906,0.721,2.582,0.508
			c1.53-0.479,0.715-4.599,0.258-6.345c-0.605-2.315-1.375-4.194-2.323-5.709c-0.79-1.261-2.315-3.124-3.61-4.313
			c-0.782-0.717-3.979-3.312-5.034-3.046c-0.782,0.196-2.11,4.439-1.42,5.457c0.827,0.906,1.865,1.471,2.711,2.282
			c2.668,2.566,3.858,5.722,4.518,10.404C81.791,37.965,82.527,38.229,83.404,38.464z M91.406,27.424
			c0.268,1.134,0.676,2.13,1.032,3.174c1.661-0.021,3.507-0.254,4.518,0.634c0.211,1.104,0.444,2.188,0.52,3.427
			c-0.824,1.221-2.708,1.398-4.264,1.904c0,1.058,0,2.113,0,3.171c0.792,0.364,1.803,0.515,2.582,0.889
			c-0.097-1.249-1.188-1.854-1.032-2.918c0.19-1.274,2.693-2.084,3.485-2.664c-0.286-1.41-0.454-2.938-0.646-4.44
			c-1.482-0.544-3.898-0.398-4.263-1.902c-0.176-0.731,0.401-1.443,0.262-2.537C92.743,26.458,92.225,27.086,91.406,27.424z
			 M102.118,36.308c2.036,4.78,6.392,8.821,12.133,9.896c6.319,1.187,11.836-1.473,14.712-4.062
			c3.424-3.08,5.484-7.495,5.421-12.562c-0.106-8.85-7.51-16.32-17.033-16.24c-7.735,0.066-13.612,5.275-15.616,10.785
			c-0.838,2.303-1.091,5.092-0.774,7.865C101.167,33.833,101.565,35.007,102.118,36.308z"/>
		<path fill="#FFFFFF" d="M13.066,11.947c0.715,1.228,1.494,2.441,2.323,3.808c0.24,0.397,0.63,1.002,0.645,1.269
			c0.035,0.605-0.431,0.823-0.645,1.396c-0.339,0.897-0.321,1.751-0.391,2.79c-1.846,0.936-3.397,2.153-5.42,2.919
			c-1.34-2.94-0.723-6.305,0.646-8.881C10.952,13.879,11.769,12.416,13.066,11.947z"/>
		<path fill="#FFFFFF" d="M16.938,24.507c1.188,0.522,2.215,1.206,4.13,1.016c1.063,1.703,1.997,3.535,3.098,5.202
			c-4.507,2.403-10.354-0.228-12.519-3.044c0-0.087,0-0.171,0-0.257C13.508,26.549,15.132,25.44,16.938,24.507z"/>
		<path fill="#FFFFFF" d="M28.941,13.342c-1.833,0.905-3.466,2.008-5.292,2.919c-1.203-0.511-2.26-1.161-4.13-1.015
			c-1.104-1.623-1.951-3.496-3.101-5.077c-0.036-0.203,0.122-0.217,0.129-0.38c2.827-1.23,6.744-0.521,9.164,0.763
			C27.075,11.274,28.451,12.167,28.941,13.342z"/>
		<path fill="#FFFFFF" d="M19.519,22.224c-2.672-1.548-0.12-4.701,1.937-3.426C22.908,19.7,22.265,22.875,19.519,22.224z"/>
		<path fill="#FFFFFF" d="M25.456,19.686c1.883-1.023,3.53-2.28,5.679-3.044c1.493,4.929-0.313,10.227-3.481,12.181
			c-1.297-1.348-1.906-3.37-3.101-4.82C24.756,22.466,25.771,21.729,25.456,19.686z"/>
		<path fill="#FFFFFF" d="M46.751,35.799c2.045,0.146,3.752,0.626,5.162,1.396c0.341,4.646,2.168,8.302,5.162,10.912
			c0.811,0.705,2.193,1.349,2.323,2.153c0.098,0.604-0.396,1.794-0.646,2.665c-0.261,0.92-0.384,1.949-1.033,2.157
			c-1.341,0.428-3.701-1.858-4.646-2.664c-2.671-2.276-4.667-4.999-5.938-8.627c-0.626-1.786-1.259-4.104-1.158-6.091
			C46.011,36.967,46.306,36.155,46.751,35.799z"/>
		<path fill="#FFFFFF" d="M67.917,17.912c0.245,1.813-0.662,3.57-1.161,5.074c-4.747,0.566-8.456,1.957-11.229,5.074
			c-0.745,0.836-1.292,2.111-2.064,2.282c-0.828,0.185-4.682-0.903-5.035-1.521c-0.042-0.377-0.132-0.18,0-0.508
			c1.854-4.558,7.1-8.941,13.036-10.402C63.447,17.422,65.977,16.741,67.917,17.912z"/>
		<path fill="#FFFFFF" d="M59.657,38.591c-0.435-2.474,0.396-4.602,1.678-5.964c0.561-0.592,3.167-2.104,4.904-2.155
			c5.578-0.162,8.859,5.767,6.324,10.277c-1.128,2.005-3.698,3.766-6.973,3.425c-2.313-0.239-4.143-1.7-5.03-3.044
			C60.273,40.694,59.839,39.624,59.657,38.591z"/>
		<path fill="#FFFFFF" d="M66.239,51.66c4.423-0.334,8.197-1.998,10.713-4.568c0.776-0.794,1.479-2.596,2.58-2.792
			c0.691-0.121,1.913,0.382,2.84,0.637c0.934,0.253,1.847,0.46,2.193,1.143c-1.019,2.646-2.938,5.027-5.162,6.852
			c-0.826,0.678-1.938,1.174-3.099,1.775c-1.047,0.545-2.008,1.275-3.1,1.648c-1.104,0.379-2.572,0.701-3.871,0.89
			c-1.355,0.192-2.93,0.343-4.26-0.257C64.54,55.253,65.635,53.102,66.239,51.66z"/>
		<path fill="#FFFFFF" d="M81.082,37.703c-0.656-4.684-1.85-7.837-4.518-10.404c-0.848-0.813-1.884-1.376-2.711-2.282
			c-0.69-1.018,0.638-5.261,1.42-5.457c1.057-0.266,4.252,2.329,5.034,3.046c1.295,1.188,2.82,3.054,3.61,4.313
			c0.948,1.515,1.716,3.394,2.323,5.709c0.457,1.746,1.272,5.864-0.258,6.345c-0.676,0.213-1.825-0.305-2.582-0.508
			C82.527,38.229,81.791,37.965,81.082,37.703z"/>
		<path fill="#FFFFFF" d="M93.601,26.158c0.143,1.094-0.438,1.806-0.262,2.537c0.361,1.504,2.777,1.357,4.263,1.902
			c0.188,1.504,0.356,3.03,0.646,4.44c-0.792,0.58-3.295,1.389-3.482,2.664c-0.158,1.063,0.936,1.669,1.029,2.918
			c-0.778-0.374-1.79-0.522-2.582-0.889c0-1.058,0-2.113,0-3.171c1.556-0.506,3.438-0.685,4.264-1.904
			c-0.072-1.239-0.309-2.321-0.52-3.427c-1.011-0.888-2.854-0.653-4.518-0.635c-0.356-1.044-0.768-2.039-1.032-3.173
			C92.225,27.086,92.743,26.458,93.601,26.158z"/>
		<path fill="#FFFFFF" d="M100.957,31.994c-0.313-2.772-0.063-5.563,0.774-7.865c2.004-5.51,7.881-10.719,15.616-10.785
			c9.523-0.079,16.927,7.393,17.033,16.24c0.063,5.065-1.997,9.48-5.421,12.562c-2.876,2.589-8.393,5.245-14.712,4.062
			c-5.741-1.075-10.097-5.116-12.133-9.896C101.565,35.007,101.167,33.833,100.957,31.994z M104.055,39.1
			c0.984,1.395,2.536,2.808,3.74,3.679c2.203,1.599,5.45,3.047,9.162,3.174c7.911,0.271,14.38-4.635,16.395-11.928
			c0.648-2.359,0.769-4.371,0.388-6.726c-1.034-6.377-6.181-11.67-12.262-13.065c-6.187-1.422-11.769,1.004-14.974,3.933
			c-3.084,2.816-5.305,6.878-5.162,12.308C101.435,33.935,102.869,37.426,104.055,39.1z"/>
		<path d="M101.344,30.471c-0.143-5.43,2.078-9.489,5.162-12.308c3.205-2.929,8.787-5.354,14.974-3.933
			c6.081,1.396,11.228,6.688,12.262,13.065c0.381,2.354,0.264,4.364-0.388,6.726c-2.015,7.293-8.48,12.194-16.395,11.927
			c-3.712-0.127-6.959-1.574-9.162-3.173c-1.204-0.872-2.756-2.284-3.74-3.679C102.869,37.426,101.435,33.935,101.344,30.471z
			 M108.7,30.088c0.174-3.788-5.98-3.342-5.033,0.51C104.34,33.333,108.576,32.831,108.7,30.088z M112.057,38.084
			c0.201-3.635-5.87-3.444-5.033,0.38C107.677,41.455,111.908,40.704,112.057,38.084z M109.732,24.507
			c3.543-0.279,2.693-5.89-1.032-5.073c-1.13,0.246-1.937,1.732-1.677,3.045C107.289,23.83,108.041,24.643,109.732,24.507z
			 M113.733,35.039c4.674,3.379,11.947-1.243,9.938-7.231c-0.559-1.661-2.664-3.963-5.551-4.188
			c-4.318-0.335-7.021,3.131-6.841,6.597C111.403,32.51,112.409,34.082,113.733,35.039z M120.187,41.255
			c0.011-1.121-0.849-2.712-2.71-2.664c-1.771,0.044-2.672,1.839-2.322,3.3C115.815,44.658,120.159,44.148,120.187,41.255z
			 M120.187,18.543c-0.048-1.253-1.163-2.264-1.81-2.409c-3.921-0.899-4.997,5.733,0.129,4.947
			C119.408,20.427,120.239,19.883,120.187,18.543z M128.318,37.83c-0.049-2.094-2.581-3.203-4.259-2.03
			c-1.681,1.174-1.118,3.815,0.771,4.568C127.067,40.619,128.356,39.501,128.318,37.83z M125.607,24.507
			c3.86,0.041,3.317-5.94-0.646-5.073c-1.055,0.229-1.951,1.657-1.806,2.79C123.335,23.621,124.111,24.492,125.607,24.507z
			 M131.545,29.076c-0.498-2.151-4.521-2.113-5.033,0c0.083,0.51-0.168,1.349,0.131,1.648
			C127.334,33.456,132.42,32.77,131.545,29.076z"/>
		<path fill="#FFFFFF" d="M103.667,30.598c-0.947-3.852,5.207-4.298,5.033-0.51C108.576,32.831,104.34,33.333,103.667,30.598z"/>
		<path fill="#FFFFFF" d="M107.023,38.464c-0.837-3.824,5.234-4.015,5.033-0.38C111.908,40.704,107.677,41.455,107.023,38.464z"/>
		<path fill="#FFFFFF" d="M107.023,22.479c-0.26-1.313,0.547-2.799,1.677-3.045c3.729-0.814,4.575,4.794,1.032,5.073
			C108.041,24.643,107.289,23.83,107.023,22.479z"/>
		<path fill="#FFFFFF" d="M111.281,30.216c-0.184-3.466,2.521-6.932,6.841-6.597c2.887,0.225,4.992,2.524,5.551,4.188
			c2.011,5.988-5.266,10.61-9.938,7.231C112.409,34.082,111.403,32.51,111.281,30.216z"/>
		<path fill="#FFFFFF" d="M115.154,41.891c-0.353-1.461,0.552-3.256,2.322-3.3c1.861-0.048,2.721,1.543,2.71,2.664
			C120.159,44.148,115.815,44.658,115.154,41.891z"/>
		<path fill="#FFFFFF" d="M118.509,21.083c-5.126,0.786-4.05-5.849-0.129-4.947c0.646,0.146,1.762,1.156,1.81,2.409
			C120.239,19.883,119.408,20.427,118.509,21.083z"/>
		<path fill="#FFFFFF" d="M124.834,40.368c-1.893-0.753-2.452-3.396-0.771-4.568c1.678-1.172,4.21-0.063,4.259,2.03
			C128.356,39.501,127.067,40.619,124.834,40.368z"/>
		<path fill="#FFFFFF" d="M123.156,22.224c-0.146-1.133,0.751-2.561,1.806-2.79c3.966-0.867,4.511,5.114,0.646,5.073
			C124.111,24.492,123.335,23.621,123.156,22.224z"/>
		<path fill="#FFFFFF" d="M126.64,30.725c-0.299-0.302-0.048-1.141-0.131-1.648c0.515-2.113,4.535-2.151,5.033,0
			C132.42,32.77,127.334,33.456,126.64,30.725z"/>
	</g>
	<g>
		<path d="M36.919,81.611c-0.016,0.271-0.08,1.265-0.993,1.682c-0.494,0.225-1.07,0.225-1.601,0.225h-3.569V72.215h3.505
			c0.674,0,1.313-0.016,1.873,0.434c0.642,0.496,0.674,1.151,0.674,1.873v1.008c0,0.033,0,0.496-0.064,0.802
			c-0.208,0.944-0.912,1.04-1.249,1.104c0.656,0.127,0.913,0.287,1.121,0.543c0.352,0.465,0.32,0.991,0.32,1.521v1.602
			C36.935,81.275,36.919,81.451,36.919,81.611z M34.742,74.872c0-0.271-0.016-0.353-0.048-0.496
			c-0.146-0.526-0.592-0.544-1.024-0.544h-0.832v2.85h0.752c0.288,0,0.434-0.017,0.563-0.031c0.398-0.08,0.592-0.319,0.592-1.008
			L34.742,74.872L34.742,74.872z M34.885,79.418c0-0.336,0-0.464-0.063-0.624c-0.16-0.465-0.672-0.479-1.089-0.479h-0.896v3.568
			h0.88c0.178,0,0.368,0,0.528-0.031c0.448-0.063,0.641-0.336,0.641-1.104L34.885,79.418L34.885,79.418z"/>
		<path d="M40.533,79.834v1.346c0,0.287,0,0.399,0.048,0.545c0.128,0.416,0.496,0.465,0.656,0.465c0.304,0,0.512-0.16,0.606-0.448
			c0.08-0.226,0.064-0.816,0.064-0.929h1.841v0.654c0,0.288,0,0.465-0.08,0.736c-0.318,1.152-1.345,1.473-2.433,1.473
			c-1.681,0-2.241-0.832-2.465-1.566c-0.112-0.4-0.146-0.979-0.146-1.073v-3.457c0-0.128,0.018-0.672,0.208-1.104
			c0.4-0.959,1.457-1.313,2.417-1.313c1.329,0,2.065,0.672,2.307,1.169c0.144,0.288,0.224,0.544,0.224,1.168v2.337L40.533,79.834
			L40.533,79.834z M41.893,77.482c0-0.178,0.03-0.816-0.656-0.816c-0.688,0-0.704,0.607-0.704,0.816v1.008h1.36V77.482
			L41.893,77.482z"/>
		<path d="M49.205,77.066c-0.144-0.064-0.304-0.129-0.624-0.129c-0.112,0-0.432,0-0.72,0.19c-0.528,0.368-0.512,1.011-0.512,1.554
			v4.834h-1.891V75.32h1.905l-0.016,1.041c0.048-0.08,0.128-0.271,0.286-0.479c0.528-0.705,1.249-0.721,1.585-0.705L49.205,77.066z"
			/>
		<path d="M52.341,79.834v1.346c0,0.287,0,0.399,0.05,0.545c0.128,0.416,0.494,0.465,0.654,0.465c0.306,0,0.514-0.16,0.608-0.448
			c0.08-0.226,0.063-0.816,0.063-0.929h1.843v0.654c0,0.288,0,0.465-0.08,0.736c-0.32,1.152-1.347,1.473-2.435,1.473
			c-1.681,0-2.239-0.832-2.465-1.566c-0.112-0.4-0.144-0.979-0.144-1.073v-3.457c0-0.128,0.016-0.672,0.208-1.104
			c0.398-0.959,1.457-1.313,2.417-1.313c1.329,0,2.063,0.672,2.305,1.169c0.144,0.288,0.224,0.544,0.224,1.168v2.337L52.341,79.834
			L52.341,79.834z M53.701,77.482c0-0.178,0.032-0.816-0.656-0.816c-0.688,0-0.704,0.607-0.704,0.816v1.008h1.36V77.482z"/>
		<path d="M61.973,82.844c-0.688,0.864-1.857,0.832-2.131,0.832c-1.185,0-1.809-0.367-2.177-0.769
			c-0.048-0.063-0.224-0.304-0.336-0.576c-0.128-0.336-0.16-0.672-0.16-1.04v-3.634c0-0.593,0.08-1.089,0.448-1.568
			c0.704-0.913,1.969-0.929,2.225-0.929c0.192,0,1.905,0,2.435,1.232c0.096,0.238,0.16,0.512,0.16,1.057v0.977h-1.873v-0.99
			c0-0.209-0.018-0.307-0.032-0.4c-0.048-0.176-0.224-0.528-0.688-0.514c-0.224,0-0.366,0.063-0.446,0.111
			c-0.256,0.178-0.336,0.434-0.336,0.992v3.568c0,0.289,0,0.418,0.048,0.562c0.096,0.336,0.368,0.515,0.705,0.515
			c0.048,0,0.256-0.019,0.416-0.112c0.304-0.208,0.318-0.624,0.318-0.944V80.27h1.891v0.928
			C62.438,81.451,62.469,82.219,61.973,82.844z"/>
		<path d="M67.365,83.516v-5.826c0-0.336,0-0.479-0.064-0.642c-0.11-0.239-0.366-0.366-0.64-0.366c-0.512,0-0.672,0.385-0.72,0.561
			c-0.032,0.128-0.032,0.191-0.032,0.336v5.938h-1.905V72.215h1.873l0.018,3.764c0.208-0.226,0.72-0.816,1.665-0.816
			c0.734,0,1.358,0.4,1.601,1.12c0.064,0.192,0.112,0.399,0.112,0.815v6.42h-1.907V83.516z"/>
		<path d="M74.453,83.516v-6.033c0-0.515-0.031-0.723-0.288-0.881c-0.063-0.05-0.176-0.098-0.368-0.098
			c-0.896,0-0.814,0.944-0.814,1.104v5.906h-1.905V75.32h1.938l-0.019,0.593c0.496-0.479,0.896-0.752,1.633-0.752
			c0.753,0,1.457,0.384,1.648,1.151c0.063,0.226,0.063,0.369,0.063,0.801v6.402H74.453z"/>
		<path d="M79.957,79.834v1.346c0,0.287,0,0.399,0.047,0.545c0.129,0.416,0.496,0.465,0.656,0.465c0.305,0,0.513-0.16,0.609-0.448
			c0.08-0.226,0.063-0.816,0.063-0.929h1.841v0.654c0,0.288,0,0.465-0.08,0.736c-0.318,1.152-1.345,1.473-2.434,1.473
			c-1.68,0-2.24-0.832-2.465-1.566c-0.111-0.4-0.146-0.979-0.146-1.073v-3.457c0-0.128,0.018-0.672,0.208-1.104
			c0.4-0.959,1.457-1.313,2.417-1.313c1.329,0,2.065,0.672,2.307,1.169c0.145,0.288,0.225,0.544,0.225,1.168v2.337L79.957,79.834
			L79.957,79.834z M81.316,77.482c0-0.178,0.033-0.816-0.656-0.816c-0.688,0-0.703,0.607-0.703,0.816v1.008h1.359V77.482z"/>
		<path d="M95.206,81.611c-0.016,0.271-0.08,1.265-0.992,1.682c-0.496,0.225-1.07,0.225-1.601,0.225h-3.569V72.215h3.505
			c0.674,0,1.313-0.016,1.873,0.434c0.642,0.496,0.672,1.151,0.672,1.873v1.008c0,0.033,0,0.496-0.063,0.802
			c-0.208,0.944-0.913,1.04-1.249,1.104c0.656,0.127,0.912,0.287,1.12,0.543c0.353,0.465,0.32,0.991,0.32,1.521v1.602
			C95.221,81.275,95.206,81.451,95.206,81.611z M93.029,74.872c0-0.271-0.017-0.353-0.048-0.496
			c-0.146-0.526-0.593-0.544-1.024-0.544h-0.833v2.85h0.753c0.288,0,0.434-0.017,0.562-0.031c0.398-0.08,0.593-0.319,0.593-1.008
			L93.029,74.872L93.029,74.872z M93.173,79.418c0-0.336,0-0.464-0.063-0.624c-0.16-0.465-0.673-0.479-1.089-0.479h-0.896v3.568
			h0.881c0.178,0,0.368,0,0.528-0.031c0.448-0.063,0.64-0.336,0.64-1.104L93.173,79.418L93.173,79.418z"/>
		<path d="M104.437,83.516l0.19-9.797l-1.822,9.797h-1.938l-1.872-9.797l0.16,9.797h-2.049V72.215h3.393l1.329,7.907l1.345-7.907
			h3.347v11.303h-2.082V83.516z"/>
		<path d="M108.515,83.516V72.215h2.063v11.303h-2.063V83.516z"/>
	</g>
</g>
</svg>
