<?xml version="1.0" encoding="utf-8"?>
<!-- Generator: Adobe Illustrator 15.0.0, SVG Export Plug-In . SVG Version: 6.00 Build 0)  -->
<!DOCTYPE svg PUBLIC "-//W3C//DTD SVG 1.1//EN" "http://www.w3.org/Graphics/SVG/1.1/DTD/svg11.dtd">
<svg version="1.1" id="Ebene_1" xmlns="http://www.w3.org/2000/svg" xmlns:xlink="http://www.w3.org/1999/xlink" x="0px" y="0px"
	 width="107.72px" height="107.72px" viewBox="0 0 107.72 107.72" enable-background="new 0 0 107.72 107.72" xml:space="preserve">
<path fill-rule="evenodd" clip-rule="evenodd" d="M9.278,1.671c0.775,0,1.548,0,2.321,0c3.657,0.705,3.401,5.321,4.431,8.65
	c0.079,0.898-1.048,0.771-1.266,1.057c-0.645,0.842,0.037,2.613-0.633,3.374c0.601,0.593,0.856,1.002,1.266,1.479
	c0.438,0.509,0.636,1.135,1.266,1.478c1.154,0.625,2.822,0.109,4.219,0.841c2.41,1.267,3.172,5.917,3.798,8.651
	c0.823,3.602,1.663,7.224,1.054,10.972c-0.857,0.878-2.178,1.452-3.375,1.687c-0.368,0.071-1.446-0.38-1.477,0.421
	c-0.19,2.302,0.892,4.127,0,5.91c2.707,8.276,0.625,19.835,1.477,28.905c0.301,3.196,1.048,6.287,1.266,9.283
	c0.157,2.153-0.277,4.416,0.422,6.327c0.971,2.657,5.076,2.833,4.852,6.329c-2.464,2.111-6.485-0.197-7.384-2.319
	c-1.223,0-2.423-0.284-3.375-1.054c-0.91-6.162-0.722-12.719-1.477-18.99c-0.365-3.026-0.853-6.079-1.266-9.071
	c-0.445-3.23-0.136-6.65-1.899-8.439c-1.728,2.866-1.927,6.912-2.532,11.181c-0.86,6.073-2.235,12.594-2.109,19.836
	c0.047,2.795,0.692,5.76,0.21,8.016c-0.238,1.113-1.686,2.141-1.899,3.165c-0.372,1.787,0.837,3.115,0.21,4.64
	c-0.519,1.267-2.24,1.904-3.586,1.688c-2.604-0.416-2.548-4.195-1.266-6.539c-0.573-1.421-0.086-2.96,0-4.431
	c0.099-1.686-0.071-3.336-0.21-5.063C1.669,81.625,2.95,74.354,2.95,66.865c0-4.392-0.536-8.903,0-13.08
	c0.33-2.577,1.173-5.097,1.054-7.595c-0.504-1.175-0.698-2.192-0.843-3.377c-0.157-1.278,0.047-2.685-0.21-4.009
	c-0.229-1.175-0.76-2.37-1.056-3.588c-1.075-4.444-3.772-14.287,0.211-16.667c1.181-0.704,2.634-0.392,4.008-0.841
	c2.409-0.791,3.059-2.865,1.688-5.064c-2.288-0.517-1.425-2.534-1.476-4.854C6.247,4.271,6.613,2.166,9.278,1.671z"/>
<polygon points="37.003,14.633 40.152,14.633 36.137,1.462 32.125,14.633 35.276,14.633 35.276,93.129 32.125,93.129 
	36.142,106.301 40.152,93.129 37.003,93.129 "/>
<g>
	<line fill="none" stroke="#000000" stroke-width="0.5669" stroke-miterlimit="10" x1="5.148" y1="1.419" x2="37.917" y2="1.419"/>
	
		<line fill="none" stroke="#000000" stroke-width="0.5669" stroke-miterlimit="10" x1="5.148" y1="105.994" x2="37.917" y2="105.994"/>
</g>
<g>
	<path d="M-137.627,26.46c-0.195-0.475-0.289-1.112-0.289-1.907c0-0.146,0.033-0.548,0.089-1.176
		c0.062-0.641,0.085-1.278,0.085-1.918c-0.324-1.939-1.439-2.917-3.348-2.917c-1.335,0.227-2.417,1.464-3.243,3.708
		c-0.822,2.243-1.233,5.022-1.233,8.332c0,1.339,0.033,2.333,0.087,2.999c0.554,6.193,2.825,9.3,6.829,9.3
		c1.245-0.142,2.28-0.726,3.104-1.772c0.823-1.05,1.437-2.141,1.845-3.29c0.402-1.147,0.613-1.837,0.613-2.057l1.286,1.376
		c-0.476,2.966-1.55,5.545-3.233,7.728c-1.683,2.187-3.975,3.281-6.883,3.281c-3.188-0.296-5.854-1.817-8-4.555
		c-2.139-2.751-3.21-6.722-3.21-11.923c0-3.411,0.518-6.355,1.55-8.846c1.03-2.479,2.403-4.361,4.127-5.63
		c1.713-1.278,3.589-1.952,5.619-2.033c4.676,0,7.746,1.834,9.211,5.48c0.296,0.751,0.446,1.7,0.446,2.827
		c0,1.481-0.337,2.693-0.999,3.647c-0.583,0.604-1.31,0.908-2.19,0.908C-136.529,28.021-137.287,27.494-137.627,26.46z"/>
	<path d="M-103.574,22.015c0.19-0.686,0.722-1.671,1.585-2.981c0.868-1.303,2.102-2.316,3.704-3.039
		c1.01-0.494,2.098-0.742,3.27-0.742c2.832,0,4.867,1.283,6.089,3.854c1.042,2.114,1.565,5.124,1.565,9.006v13.382
		c0,1.236,0.271,2.085,0.819,2.563c0.548,0.548,1.127,0.815,1.732,0.815h0.089v2.186h-12.851v-2.186
		c0.666,0,1.241-0.268,1.732-0.815c0.608-0.446,0.916-1.298,0.916-2.563V27.754c0-4.977-1.033-7.471-3.099-7.471
		c-1.599,0-2.791,1.144-3.565,3.448c-0.782,2.296-1.169,4.032-1.169,5.2v12.563c0,1.236,0.272,2.085,0.828,2.563
		c0.531,0.548,1.107,0.815,1.732,0.815h0.085v2.186h-12.94v-2.186c0.727,0,1.335-0.268,1.821-0.815
		c0.608-0.446,0.913-1.298,0.913-2.563V27.754c0-4.977-1.03-7.471-3.092-7.471c-1.557,0-2.749,1.163-3.572,3.5
		c-0.837,2.329-1.25,4.052-1.25,5.147v12.563c0,1.188,0.301,2.045,0.909,2.563c0.608,0.548,1.205,0.815,1.801,0.815v2.186h-13.568
		v-2.186h0.742c0.604,0,1.184-0.268,1.728-0.815c0.608-0.547,0.917-1.408,0.917-2.563V22.724c0-1.314-0.337-2.434-1.002-3.35
		c-0.669-0.499-1.465-0.742-2.385-0.742V16.08h10.858v6.198c0.028-0.101,0.117-0.43,0.276-0.99c0.149-0.551,0.385-1.144,0.705-1.789
		c0.309-0.628,0.763-1.282,1.363-1.935c0.6-0.649,1.358-1.176,2.279-1.57c1.258-0.612,2.503-0.92,3.731-0.92
		c1.973,0,3.521,0.709,4.649,2.117C-104.13,18.704-103.574,20.314-103.574,22.015z"/>
</g>
<rect x="-216" y="72" fill="none" width="144.75" height="60.75"/>
<text transform="matrix(1 0 0 1 -216 105.2148)" font-family="'MyriadPro-BlackCond'" font-size="48">cm</text>
<g>
	<path d="M60.243,70.944c-0.854,0.355-3.274,0.925-6.051,0.925c-9.396,0-15.446-6.121-15.446-17.512
		c0-11.175,6.905-18.365,17.014-18.365c2.348,0,4.341,0.498,5.195,0.854l-1.282,8.542c-0.781-0.214-1.85-0.499-3.272-0.499
		c-4.059,0-6.763,3.274-6.763,9.041c0,5.552,2.491,9.039,6.548,9.039c1.282,0,2.35-0.213,3.274-0.641L60.243,70.944z"/>
	<path d="M63.443,47.596c0-3.702-0.143-7.617-0.284-11.177h9.539l0.569,3.987h0.142c1.923-2.492,4.984-4.556,8.543-4.556
		c4.2,0,6.618,1.921,7.758,4.556h0.144c0.854-1.21,2.206-2.492,3.628-3.345c1.426-0.783,3.135-1.21,4.913-1.21
		c6.904,0,9.325,5.623,9.325,13.809v21.782H96.758V51.369c0-3.702-0.355-6.407-2.563-6.407c-1.352,0-2.277,0.783-2.847,2.278
		c-0.142,0.356-0.285,1.281-0.285,2.207v21.995H80.1V49.945c0-1.994-0.069-4.983-2.491-4.983c-1.065,0-2.135,0.64-2.774,2.063
		c-0.215,0.5-0.429,1.496-0.429,2.492v21.924H63.443V47.596z"/>
</g>
</svg>
