<?xml version="1.0" encoding="utf-8"?>
<!-- Generator: Adobe Illustrator 15.0.0, SVG Export Plug-In . SVG Version: 6.00 Build 0)  -->
<!DOCTYPE svg PUBLIC "-//W3C//DTD SVG 1.1//EN" "http://www.w3.org/Graphics/SVG/1.1/DTD/svg11.dtd">
<svg version="1.1" id="Ebene_1" xmlns="http://www.w3.org/2000/svg" xmlns:xlink="http://www.w3.org/1999/xlink" x="0px" y="0px"
	 width="107.721px" height="107.721px" viewBox="0 0 107.721 107.721" enable-background="new 0 0 107.721 107.721"
	 xml:space="preserve">
<g>
	<path fill-rule="evenodd" clip-rule="evenodd" d="M30.215,49.501c0.23,1.117-1.255,0.322-1.265,1.173
		c0.694,3.434,0.232,5.546-2.526,6.099c-0.676,6.006-3.761,11.901-3.791,19c-0.026,6.423-0.49,12.669-2.949,17.592
		c0.193,1.856,0.174,2.683-0.631,3.754c0.351,3.076,1.381,10.428-2.737,8.913c-2.275-0.837-1.383-6.2-1.685-8.444
		c-2.371,0.594-1.26,4.666-2.527,6.568c-0.871,1.305-2.618,1.733-4.423,0.938c-0.955-2.753,1.134-4.235,1.685-6.099
		c0.328-1.114-0.096-2.261,0.632-3.284c-0.103-1.371-1.375-1.44-1.685-2.58c-0.474-6.956-2.828-13.257-2.317-21.111
		c0.277-4.245,0.231-10.007,0.633-15.012c-2.377-0.302-3.22-2.401-2.316-5.16c0.027-0.813-0.927-0.532-1.054-1.174
		c-0.773-4.478-4.309-9.514-2.948-15.247c0.394-1.66,1.41-4.097,2.106-6.332c1.543-4.964,2.345-9.373,7.159-9.852
		c-0.925-2.178,0.453-4.451,0.633-7.038c0.216-3.14-0.866-6.906,0.632-8.912c1.578-2.116,5.011-2.06,7.16-1.408
		c3.355,1.017,3.514,3.822,4.633,7.74c0.625,2.186,1.547,2.672,1.264,5.395c-0.174,1.666-1.427,2.938-1.053,4.224
		c0.309,1.061,2.242,1.214,3.369,2.11c2.28,1.813,2.269,4.294,3.792,8.21c1.254,3.229,2.918,5.407,2.947,9.617
		C32.979,43.159,31.017,46.024,30.215,49.501z M4.311,38.476c-0.428,4.61,1.749,7.574,2.526,10.32
		c0.188,0.662-0.409,1.198,0.421,1.408c0.759-5.712,0.974-13.764,0.212-19.703C6.586,33.116,4.619,35.152,4.311,38.476z
		 M26.634,47.389c3.349-4.617,1.724-13.619-2.105-16.185c-0.212,0-0.421,0-0.632,0c-1.756,6.115,0.395,13.299,1.895,18.062
		c0.163,0.526-0.972,0.748-0.21,1.173C26.243,49.769,26.89,49.083,26.634,47.389z M14.42,71.315
		c-0.453,2.682-1.427,5.586-1.475,8.211c-0.076,4.135,1.596,7.904,1.475,12.432c0.598,0.016,0.551-1.066,0.631-1.408
		c1.894-7.99,1.022-18.951,0.633-27.678C15.331,65.768,14.897,68.487,14.42,71.315z"/>
	<polygon fill="#1D1D1B" points="37.003,14.634 40.151,14.634 36.136,1.462 32.125,14.634 35.275,14.634 35.275,93.13 32.125,93.13 
		36.141,106.302 40.151,93.13 37.003,93.13 	"/>
	<line fill="none" stroke="#1D1D1B" stroke-width="0.5669" stroke-miterlimit="10" x1="14.187" y1="1.419" x2="37.917" y2="1.419"/>
	
		<line fill="none" stroke="#1D1D1B" stroke-width="0.5669" stroke-miterlimit="10" x1="8.437" y1="105.995" x2="37.917" y2="105.995"/>
	<g>
		<path fill="#1D1D1B" d="M60.242,70.944c-0.854,0.355-3.273,0.926-6.051,0.926c-9.395,0-15.445-6.121-15.445-17.513
			c0-11.175,6.904-18.364,17.014-18.364c2.348,0,4.34,0.497,5.195,0.854l-1.283,8.543c-0.781-0.215-1.85-0.499-3.271-0.499
			c-4.059,0-6.764,3.274-6.764,9.041c0,5.552,2.491,9.04,6.549,9.04c1.281,0,2.35-0.213,3.273-0.641L60.242,70.944z"/>
		<path fill="#1D1D1B" d="M63.443,47.596c0-3.702-0.143-7.617-0.285-11.177h9.539l0.57,3.986h0.141
			c1.924-2.492,4.984-4.556,8.543-4.556c4.201,0,6.619,1.922,7.758,4.556h0.145c0.854-1.21,2.205-2.492,3.627-3.345
			c1.426-0.783,3.135-1.211,4.914-1.211c6.904,0,9.324,5.623,9.324,13.809v21.783H96.758V51.369c0-3.702-0.355-6.407-2.564-6.407
			c-1.352,0-2.277,0.783-2.846,2.278c-0.143,0.356-0.285,1.281-0.285,2.206v21.996H80.099V49.945c0-1.994-0.07-4.983-2.492-4.983
			c-1.064,0-2.135,0.641-2.773,2.063c-0.215,0.5-0.43,1.496-0.43,2.492v21.925H63.443V47.596z"/>
	</g>
</g>
</svg>
