<?xml version="1.0" encoding="utf-8"?>
<!-- Generator: Adobe Illustrator 15.0.0, SVG Export Plug-In . SVG Version: 6.00 Build 0)  -->
<!DOCTYPE svg PUBLIC "-//W3C//DTD SVG 1.1//EN" "http://www.w3.org/Graphics/SVG/1.1/DTD/svg11.dtd">
<svg version="1.1" id="Ebene_1" xmlns="http://www.w3.org/2000/svg" xmlns:xlink="http://www.w3.org/1999/xlink" x="0px" y="0px"
	 width="107.717px" height="107.717px" viewBox="25.512 25.511 107.717 107.717"
	 enable-background="new 25.512 25.511 107.717 107.717" xml:space="preserve">
<g>
	<path fill="#1D1D1B" d="M88.201,111.244c-0.49,0.842-0.739,1.812-0.739,2.878c0,1.904,0.718,3.41,2.192,4.601
		c1.512,1.222,3.597,1.84,6.194,1.84c1.979,0,3.831-0.4,5.504-1.19c1.62-0.762,2.824-1.789,3.582-3.052
		c0.773-1.285,1.164-2.513,1.164-3.648c0-1.11-0.286-2.025-0.876-2.793c-0.554-0.724-1.25-1.152-2.123-1.31
		c-1.097-0.193-3.024-0.293-5.729-0.293c-4.409,0-5.366,0.074-5.568,0.104c-0.153,0.025-0.625,0.152-1.694,0.833
		C89.325,109.715,88.701,110.379,88.201,111.244z"/>
	<path fill="#1D1D1B" d="M94.919,81.379c-1.581,0-2.862,0.475-3.917,1.447c-1.029,0.952-1.551,2.44-1.551,4.427
		c0,1.076,0.228,2.263,0.68,3.522c0.415,1.155,1.053,1.999,1.952,2.577c0.913,0.59,1.923,0.876,3.083,0.876
		c1.558,0,2.858-0.468,3.981-1.434c1.071-0.922,1.613-2.448,1.613-4.534c0-1.83-0.528-3.431-1.614-4.893
		C98.151,82.028,96.768,81.379,94.919,81.379z"/>
	<path fill="none" d="M77.306,102.871c-0.097-0.039-0.712-0.339-2.992-2.278c-1.702-1.449-3.923-3.485-6.606-6.051
		c-2.126-2.028-3.767-3.65-4.897-4.84l2.062-1.606c2.261-1.77,4.244-3.218,5.898-4.305c2.103-1.381,2.847-1.74,3.103-1.834
		c0.298-0.105,0.896-0.249,2.031-0.313l0.479-0.027l0.321-0.343l0.249-0.267l0.3-0.318v-0.432V79.1v-0.466l-0.344-0.329l-0.28-0.268
		l-0.365-0.349l-0.514,0.021c-1.499,0.061-2.399,0.089-2.837,0.089c-0.398,0-1.879-0.048-3.125-0.089l-0.872-0.028l-0.223,0.631
		c-0.201,0.218-0.898,0.906-3.297,3.033c-2.275,2.016-4.462,3.833-6.501,5.404c-0.938,0.723-1.674,1.271-2.25,1.69V76.699
		c0-6.774,0.113-11.337,0.336-13.563l0.068-0.688l-0.611-0.369l-0.59-0.354l-0.502-0.308l-0.554,0.211
		c-2.602,0.986-5.865,1.701-9.696,2.125l-0.445,0.048l-0.298,0.32l-0.249,0.268l-0.297,0.318v0.429v1.246v0.467l0.344,0.329
		l0.28,0.268l0.343,0.328h0.485c2.501,0,3.223,0.052,3.425,0.077c0.03,0.159,0.07,0.432,0.108,0.876
		c0.069,0.834,0.137,2.35,0.197,4.507l0.124,6.279v15.338c0,1.08-0.046,2.713-0.138,4.858c-0.123,2.861-0.203,3.525-0.23,3.678
		c-0.039,0.205-0.09,0.272-0.09,0.273c-0.039,0.036-0.077,0.053-0.122,0.062c-0.043,0.008-0.515,0.078-3.191,0.237l-0.402,0.023
		l-0.302,0.254l-0.28,0.236l-0.397,0.334v0.509v1.246v0.466l0.343,0.329l0.28,0.268l0.376,0.359l0.529-0.032
		c2.502-0.156,4.983-0.235,7.371-0.235c2.41,0,4.9,0.079,7.403,0.235l0.572,0.035l0.381-0.411l0.249-0.269l0.296-0.318v-0.427
		v-1.248v-0.507l-0.398-0.335l-0.279-0.236l-0.301-0.254l-0.397-0.024c-2.625-0.158-3.115-0.222-3.203-0.236
		c-0.05-0.009-0.063-0.021-0.074-0.029c0.002,0-0.054-0.085-0.106-0.311c-0.027-0.122-0.127-0.751-0.236-3.929
		c-0.083-2.341-0.125-3.741-0.125-4.162v-0.964l2.593,2.292c1.397,1.219,2.533,2.247,3.382,3.056l2.726,2.635l2.291,2.249
		c0.602,0.596,1.967,1.771,4.17,3.594l0.513,0.425l0.64-0.216c3.88-1.3,5.275-1.678,5.76-1.768l0.952-0.174v-0.93v-1.271v-1.122
		H78.5C78.079,103.097,77.688,103.022,77.306,102.871z"/>
	<path fill="none" d="M114.581,79.925l-0.323-0.693l-0.792,0.028c-2.162,0.074-5.041,0.114-8.559,0.117
		c-2.438-1.598-5.044-2.407-7.756-2.407c-1.598,0-3.374,0.269-5.277,0.801c-1.898,0.528-3.648,1.262-5.195,2.185
		c-1.645,0.982-2.896,2.313-3.714,3.955c-0.796,1.598-1.2,3.303-1.2,5.063c0,1.959,0.583,3.786,1.737,5.431
		c0.892,1.278,2.324,2.287,4.347,3.054l-3.111,2.142l-0.242,0.168l-0.13,0.258c-0.602,1.191-0.894,2.224-0.894,3.156
		c0,1.004,0.33,1.88,0.979,2.61c0.326,0.371,0.826,0.715,1.526,1.048l-3.427,1.829l-0.248,0.135l-0.158,0.227
		c-0.706,1.022-1.195,2.004-1.456,2.915c-0.253,0.891-0.382,1.765-0.382,2.597c0,1.514,0.416,2.986,1.238,4.376
		c0.811,1.376,1.901,2.507,3.24,3.362c1.3,0.833,2.823,1.46,4.525,1.861c1.677,0.396,3.481,0.599,5.359,0.599
		c3.304,0,6.465-0.599,9.394-1.779c2.996-1.211,5.329-3.011,6.934-5.355c1.6-2.341,2.41-4.739,2.41-7.124
		c0-1.607-0.413-3.15-1.229-4.584c-0.845-1.491-1.989-2.548-3.393-3.146c-1.335-0.563-3.139-0.837-5.517-0.837l-6.969,0.088
		c-3.2,0-4.321-0.274-4.705-0.437c-0.415-0.178-0.562-0.39-0.562-0.813c0-0.229,0.098-0.467,0.297-0.722
		c0.15-0.197,0.587-0.661,1.829-1.623h1.016c2.077,0,3.966-0.305,5.614-0.904c1.631-0.595,3.11-1.401,4.401-2.4
		c1.33-1.028,2.382-2.294,3.126-3.762c0.748-1.475,1.128-3.018,1.128-4.586c0-0.777-0.11-1.543-0.328-2.288h4.058h0.707l0.33-0.599
		c0.185-0.336,0.7-1.125,1.528-2.344l0.348-0.513l-0.261-0.557L114.581,79.925z"/>
	<path fill="#1D1D1B" d="M117.106,52.382H96.819V50.42c4.644-1.6,9.184-4.043,9.184-9.894c0-8.7-11.201-15.014-26.634-15.014
		c-15.432,0-26.634,6.314-26.634,15.013c0,5.851,4.542,8.294,9.183,9.894v1.962H41.634c-8.891,0-16.122,6.922-16.122,15.433v49.98
		c0,8.512,7.231,15.435,16.122,15.435h75.473c8.889,0,16.122-6.923,16.122-15.435V67.815
		C133.229,59.303,125.995,52.382,117.106,52.382z M79.672,104.219v1.271v0.93l-0.952,0.174c-0.485,0.09-1.88,0.468-5.76,1.768
		l-0.64,0.216l-0.513-0.425c-2.203-1.823-3.568-2.998-4.17-3.594l-2.291-2.249l-2.726-2.635c-0.849-0.809-1.985-1.837-3.382-3.056
		l-2.593-2.292v0.964c0,0.421,0.042,1.821,0.125,4.162c0.109,3.178,0.209,3.807,0.236,3.929c0.052,0.226,0.108,0.311,0.106,0.311
		c0.011,0.009,0.023,0.021,0.074,0.029c0.088,0.015,0.578,0.078,3.203,0.236l0.397,0.024l0.301,0.254l0.279,0.236l0.398,0.335v0.507
		v1.248v0.427l-0.296,0.318l-0.249,0.269l-0.381,0.411l-0.572-0.035c-2.503-0.156-4.993-0.235-7.403-0.235
		c-2.388,0-4.869,0.079-7.371,0.235l-0.529,0.032l-0.376-0.359l-0.28-0.268l-0.343-0.329v-0.466v-1.246v-0.509l0.397-0.334
		l0.28-0.236l0.302-0.254l0.402-0.023c2.676-0.159,3.147-0.229,3.191-0.237c0.045-0.009,0.083-0.025,0.122-0.062
		c0-0.001,0.051-0.068,0.09-0.273c0.027-0.152,0.107-0.816,0.23-3.678c0.092-2.146,0.138-3.778,0.138-4.858V79.514l-0.124-6.279
		c-0.06-2.157-0.127-3.673-0.197-4.507c-0.039-0.444-0.078-0.717-0.108-0.876c-0.202-0.025-0.924-0.077-3.425-0.077h-0.485
		l-0.343-0.328l-0.28-0.268l-0.344-0.329v-0.467v-1.246v-0.429l0.297-0.318l0.249-0.268l0.298-0.32l0.445-0.048
		c3.832-0.425,7.094-1.139,9.696-2.125l0.554-0.211l0.502,0.308l0.59,0.354l0.611,0.369l-0.068,0.688
		c-0.223,2.226-0.336,6.789-0.336,13.563V88.44c0.577-0.42,1.313-0.968,2.25-1.69c2.04-1.571,4.227-3.389,6.501-5.404
		c2.399-2.126,3.096-2.815,3.297-3.033l0.223-0.631l0.872,0.028c1.246,0.041,2.727,0.089,3.125,0.089
		c0.438,0,1.338-0.028,2.837-0.089l0.514-0.021l0.365,0.349l0.28,0.268l0.344,0.329V79.1v1.157v0.432l-0.3,0.318l-0.249,0.267
		l-0.321,0.343l-0.479,0.027c-1.135,0.064-1.732,0.208-2.031,0.313c-0.256,0.094-1,0.453-3.103,1.834
		c-1.655,1.087-3.638,2.535-5.898,4.305l-2.062,1.606c1.13,1.189,2.771,2.812,4.897,4.84c2.683,2.565,4.904,4.602,6.606,6.051
		c2.28,1.939,2.896,2.239,2.992,2.278c0.382,0.151,0.773,0.227,1.194,0.227h1.172V104.219z M114.74,81.525
		c-0.828,1.219-1.344,2.008-1.528,2.344l-0.33,0.599h-0.707h-4.058c0.218,0.745,0.328,1.511,0.328,2.288
		c0,1.568-0.38,3.111-1.128,4.586c-0.744,1.468-1.796,2.733-3.126,3.762c-1.291,0.999-2.771,1.806-4.401,2.4
		c-1.648,0.6-3.537,0.904-5.614,0.904H93.16c-1.242,0.962-1.679,1.426-1.829,1.623c-0.199,0.255-0.297,0.493-0.297,0.722
		c0,0.423,0.146,0.635,0.562,0.813c0.384,0.162,1.505,0.437,4.705,0.437l6.969-0.088c2.378,0,4.182,0.274,5.517,0.837
		c1.403,0.598,2.548,1.654,3.393,3.146c0.815,1.434,1.229,2.977,1.229,4.584c0,2.385-0.811,4.783-2.41,7.124
		c-1.604,2.345-3.938,4.145-6.934,5.355c-2.929,1.181-6.09,1.779-9.394,1.779c-1.878,0-3.683-0.203-5.359-0.599
		c-1.702-0.401-3.226-1.028-4.525-1.861c-1.339-0.855-2.43-1.986-3.24-3.362c-0.822-1.39-1.238-2.862-1.238-4.376
		c0-0.832,0.129-1.706,0.382-2.597c0.261-0.911,0.75-1.893,1.456-2.915l0.158-0.227l0.248-0.135l3.427-1.829
		c-0.7-0.333-1.2-0.677-1.526-1.048c-0.649-0.73-0.979-1.606-0.979-2.61c0-0.933,0.292-1.965,0.894-3.156l0.13-0.258l0.242-0.168
		l3.111-2.142c-2.022-0.767-3.455-1.775-4.347-3.054c-1.154-1.645-1.737-3.472-1.737-5.431c0-1.76,0.404-3.465,1.2-5.063
		c0.818-1.642,2.069-2.973,3.714-3.955c1.547-0.922,3.297-1.657,5.195-2.185c1.903-0.532,3.68-0.801,5.277-0.801
		c2.712,0,5.317,0.81,7.756,2.407c3.518-0.003,6.396-0.043,8.559-0.117l0.792-0.028l0.323,0.693l0.246,0.531l0.261,0.557
		L114.74,81.525z"/>
</g>
</svg>
